<?xml version="1.0" encoding="UTF-8"?>
<!DOCTYPE svg PUBLIC "-//W3C//DTD SVG 1.1//EN" "http://www.w3.org/Graphics/SVG/1.1/DTD/svg11.dtd">
<!-- Creator: CorelDRAW 2021.5 -->
<svg xmlns="http://www.w3.org/2000/svg" xml:space="preserve" width="300mm" height="300mm" version="1.1" style="shape-rendering:geometricPrecision; text-rendering:geometricPrecision; image-rendering:optimizeQuality; fill-rule:evenodd; clip-rule:evenodd"
viewBox="0 0 30000 30000"
 xmlns:xlink="http://www.w3.org/1999/xlink"
 xmlns:xodm="http://www.corel.com/coreldraw/odm/2003">
 <defs>
  <style type="text/css">
   <![CDATA[
    .fil3 {fill:#FEFEFE}
    .fil0 {fill:#FEFEFE}
    .fil2 {fill:#F6BB42}
    .fil1 {fill:#FFCE54}
   ]]>
  </style>
 </defs>
 <g id="Layer_x0020_1">
  <metadata id="CorelCorpID_0Corel-Layer"/>
  <g id="_2132386572464">
   <path class="fil0" d="M14997.07 24312.24c-477.6,-86.5 -417.54,-392.08 -479.04,-860.64 -246.72,-1879.82 -758.98,-3464.98 -1716.7,-5081.82 -358.28,-604.9 -1014.9,-1424.78 -1118.38,-1600.12 -142.76,-150.36 -306.76,-371.88 -440.12,-505.04 -197.16,-196.88 -297.6,-278.22 -465.84,-481.52 -291.94,-352.74 -532.04,-631.76 -801.26,-1094.26 -1066.7,-1832.64 -1107.4,-4121.02 -77.8,-6008.86 378.58,-694.12 1195.96,-1621.56 1833.72,-1974.44l295.76 -205.2c352.64,-204.32 727.46,-381.6 1127.56,-510.18 618.2,-198.66 1142.3,-281.44 1842.1,-299.68l0 -687.56c-1040.6,17.4 -1809.7,128.6 -2774.44,614.92 -1388.4,699.84 -2265.16,1496.86 -3002.14,2858.88 -64.94,120.02 -83.48,121.46 -140.2,247.68 -297.1,661.14 -621.28,1595.56 -621.28,2524.7 0,1470.22 211.46,2620.62 945.62,3838.02l500.76 749.04c298.2,395.44 528.1,595.34 870.36,982.74 114.48,129.58 171.42,165.58 287.82,315.52 1140.74,1469.6 1739.04,2415.2 2357.1,4408.98 354.06,1142.14 350.72,2536.58 664.82,2998.34 208.48,306.44 560.06,457.64 911.58,461.18l0 -690.68z"/>
   <path class="fil1" d="M11731.65 6705.54c-637.76,352.88 -1455.14,1280.32 -1833.72,1974.44 -1029.6,1887.84 -988.9,4176.22 77.8,6008.86 269.22,462.5 509.32,741.52 801.26,1094.26 168.24,203.3 268.68,284.64 465.84,481.52 133.36,133.16 297.36,354.68 440.12,505.04 103.48,175.34 760.1,995.22 1118.38,1600.12 957.72,1616.84 1469.98,3202 1716.7,5081.82 61.5,468.56 1.44,774.16 479.04,860.64l0 -6698.7c-7.92,-3174.98 -13.56,-6350.26 0,-9524.18l0 -2398.48c-692.88,19 -1228.1,101.96 -1842.1,299.28 -400.1,128.58 -774.92,305.86 -1127.56,510.18l-295.76 205.2z"/>
   <path class="fil0" d="M14997.07 24312.24c477.6,-86.5 417.54,-392.08 479.04,-860.64 246.72,-1879.82 758.98,-3464.98 1716.7,-5081.82 358.28,-604.9 1014.9,-1424.78 1118.38,-1600.12 142.76,-150.36 306.76,-371.88 440.12,-505.04 197.16,-196.88 297.6,-278.22 465.84,-481.52 291.94,-352.74 532.04,-631.76 801.26,-1094.26 1066.7,-1832.64 1107.4,-4121.02 77.8,-6008.86 -378.58,-694.12 -1195.96,-1621.56 -1833.72,-1974.44l-295.76 -205.2c-352.64,-204.32 -727.46,-381.6 -1127.56,-510.18 -618.2,-198.66 -1142.3,-281.44 -1842.1,-299.68l0 -687.56c1040.6,17.4 1809.7,128.6 2774.44,614.92 1388.4,699.84 2265.16,1496.86 3002.14,2858.88 64.94,120.02 83.48,121.46 140.2,247.68 297.1,661.14 621.28,1595.56 621.28,2524.7 0,1470.22 -211.46,2620.62 -945.62,3838.02l-500.76 749.04c-298.2,395.44 -528.1,595.34 -870.36,982.74 -114.48,129.58 -171.42,165.58 -287.82,315.52 -1140.74,1469.6 -1739.04,2415.2 -2357.1,4408.98 -354.06,1142.14 -350.72,2536.58 -664.82,2998.34 -208.48,306.44 -560.06,457.64 -911.58,461.18l0 -690.68z"/>
   <path class="fil2" d="M18262.49 6705.54c637.76,352.88 1455.14,1280.32 1833.72,1974.44 1029.6,1887.84 988.9,4176.22 -77.8,6008.86 -269.22,462.5 -509.32,741.52 -801.26,1094.26 -168.24,203.3 -268.68,284.64 -465.84,481.52 -133.36,133.16 -297.36,354.68 -440.12,505.04 -103.48,175.34 -760.1,995.22 -1118.38,1600.12 -957.72,1616.84 -1469.98,3202 -1716.7,5081.82 -61.5,468.56 -1.44,774.16 -479.04,860.64l0 -6698.7c7.92,-3174.98 13.56,-6350.26 0,-9524.18l0 -2398.48c692.88,19 1228.1,101.96 1842.1,299.28 400.1,128.58 774.92,305.86 1127.56,510.18l295.76 205.2z"/>
  </g>
  <g id="_2132386573328">
   <path class="fil3" d="M14989.37 8402.48l2497.41 1913.3c65.14,48.65 119.58,93.5 180.97,140.47 45.5,34.82 149.03,102.08 178.76,142.66 -121.58,0 -303.68,-20.85 -394.21,16.5 -71.96,29.69 -177.22,134.59 -177.22,233.5l0 2357.14c0,111.51 138.49,250 250.01,250l892.85 0 0 571.43 -6857.14 0 0 -571.43 892.85 0c111.51,0 250,-138.49 250,-250l0 -2357.14c0,-98.91 -105.25,-203.81 -177.21,-233.5 -90.54,-37.35 -272.63,-16.5 -394.22,-16.5l2857.15 -2196.43zm-4000 2446.43c0,197.56 120.49,321.43 250,321.43l892.85 0 0 1714.28 -892.85 0c-111.52,0 -250,138.49 -250,250l0 1214.29c0,118.09 131.91,250 250,250l7500 0c118.09,0 250,-131.91 250,-250l0 -1214.29c0,-111.51 -138.49,-250 -250,-250l-892.86 0 0 -1714.28 892.86 0c129.51,0 250,-123.87 250,-321.43 0,-146.82 -292.93,-340.65 -431.03,-443.97l-1000.13 -767.73c-173.22,-129.35 -329.35,-254.98 -505.23,-387.62l-1491.98 -1150.88c-108.81,-83.25 -434.08,-356.94 -535.91,-356.94 -158.03,0 -194.33,33.34 -343.42,156.59 -294.25,243.24 -787.5,606.17 -1121.07,861.07 -45.39,34.69 -79.2,64.49 -129.86,102.28 -175.81,131.18 -328.61,255.79 -505.17,387.69 -172.86,129.16 -322.84,251.03 -494.86,380.14 -174.75,131.15 -332.11,252.45 -505.23,387.62l-745.31 576.12c-73.44,59.25 -190.8,135.7 -190.8,255.63z"/>
   <path class="fil3" d="M15846.51 11456.05l571.43 0 0 1142.86 -571.43 0 0 -1142.86zm-571.43 -321.43l0 1785.72c0,118.09 131.92,250 250,250l1214.29 0c111.51,0 250,-138.49 250,-250l0 -1785.72c0,-111.51 -138.49,-249.99 -250,-249.99l-1214.29 0c-118.08,0 -250,131.91 -250,249.99z"/>
   <path class="fil3" d="M13560.8 11456.05l571.43 0 0 1142.86 -571.43 0 0 -1142.86zm-571.43 -321.43l0 1785.72c0,111.51 138.49,250 250,250l1214.29 0c118.08,0 250,-131.91 250,-250l0 -1785.72c0,-118.08 -131.92,-249.99 -250,-249.99l-1214.29 0c-111.51,0 -250,138.48 -250,249.99z"/>
   <path class="fil3" d="M14703.66 9902.48c-14,-90.42 70.52,-285.12 271.3,-299.2 357.59,-25.09 407.07,536.92 28.85,562.73 -157.47,10.74 -278.18,-121.51 -300.15,-263.53zm-571.43 -89.29c0,265.98 39.8,478.78 244.8,683.78 52.36,52.35 159.26,127.01 230.8,162.05 590.53,289.24 1238.68,-180.84 1238.68,-702.97 0,-265.97 -39.8,-478.77 -244.8,-683.76 -551.49,-551.49 -1469.48,-107.29 -1469.48,540.9z"/>
  </g>
 </g>
</svg>
