<?xml version="1.0" encoding="UTF-8"?>
<!DOCTYPE svg PUBLIC "-//W3C//DTD SVG 1.1//EN" "http://www.w3.org/Graphics/SVG/1.1/DTD/svg11.dtd">
<!-- Creator: CorelDRAW 2021.5 -->
<svg xmlns="http://www.w3.org/2000/svg" xml:space="preserve" width="300mm" height="300mm" version="1.1" style="shape-rendering:geometricPrecision; text-rendering:geometricPrecision; image-rendering:optimizeQuality; fill-rule:evenodd; clip-rule:evenodd"
viewBox="0 0 30000 30000"
 xmlns:xlink="http://www.w3.org/1999/xlink"
 xmlns:xodm="http://www.corel.com/coreldraw/odm/2003">
 <defs>
  <style type="text/css">
   <![CDATA[
    .fil3 {fill:#FEFEFE}
    .fil0 {fill:#FEFEFE}
    .fil2 {fill:#BF263B}
    .fil1 {fill:#D9334B}
   ]]>
  </style>
 </defs>
 <g id="Layer_x0020_1">
  <metadata id="CorelCorpID_0Corel-Layer"/>
  <g id="_2097366979536">
   <path class="fil0" d="M14997.06 24312.27c-477.6,-86.5 -417.54,-392.08 -479.04,-860.64 -246.72,-1879.83 -758.98,-3464.99 -1716.7,-5081.83 -358.28,-604.9 -1014.9,-1424.78 -1118.38,-1600.12 -142.76,-150.37 -306.76,-371.89 -440.13,-505.05 -197.16,-196.88 -297.6,-278.22 -465.84,-481.52 -291.94,-352.74 -532.04,-631.76 -801.26,-1094.26 -1066.7,-1832.64 -1107.4,-4121.03 -77.8,-6008.87 378.58,-694.12 1195.96,-1621.56 1833.73,-1974.44l295.76 -205.2c352.64,-204.32 727.46,-381.6 1127.56,-510.18 618.2,-198.66 1142.3,-281.44 1842.1,-299.68l0 -687.57c-1040.6,17.4 -1809.7,128.6 -2774.44,614.93 -1388.41,699.84 -2265.17,1496.86 -3002.15,2858.88 -64.94,120.02 -83.48,121.46 -140.2,247.68 -297.1,661.14 -621.28,1595.56 -621.28,2524.71 0,1470.22 211.46,2620.62 945.62,3838.02l500.76 749.04c298.2,395.44 528.1,595.34 870.36,982.75 114.48,129.58 171.42,165.58 287.82,315.52 1140.75,1469.6 1739.05,2415.2 2357.11,4408.98 354.06,1142.15 350.72,2536.59 664.82,2998.35 208.48,306.44 560.06,457.64 911.58,461.18l0 -690.68z"/>
   <path class="fil1" d="M11731.64 6705.54c-637.77,352.88 -1455.15,1280.32 -1833.73,1974.44 -1029.6,1887.84 -988.9,4176.23 77.8,6008.87 269.22,462.5 509.32,741.52 801.26,1094.26 168.24,203.3 268.68,284.64 465.84,481.52 133.37,133.16 297.37,354.68 440.13,505.05 103.48,175.34 760.1,995.22 1118.38,1600.12 957.72,1616.84 1469.98,3202 1716.7,5081.83 61.5,468.56 1.44,774.16 479.04,860.64l0 -6698.71c-7.92,-3174.99 -13.56,-6350.27 0,-9524.2l0 -2398.48c-692.88,19 -1228.1,101.96 -1842.1,299.28 -400.1,128.58 -774.92,305.86 -1127.56,510.18l-295.76 205.2z"/>
   <path class="fil0" d="M14997.06 24312.27c477.6,-86.5 417.54,-392.08 479.04,-860.64 246.73,-1879.83 758.99,-3464.99 1716.71,-5081.83 358.28,-604.9 1014.9,-1424.78 1118.38,-1600.12 142.76,-150.37 306.76,-371.89 440.12,-505.05 197.16,-196.88 297.6,-278.22 465.84,-481.52 291.94,-352.74 532.04,-631.76 801.27,-1094.26 1066.7,-1832.64 1107.4,-4121.03 77.8,-6008.87 -378.59,-694.12 -1195.97,-1621.56 -1833.73,-1974.44l-295.76 -205.2c-352.64,-204.32 -727.46,-381.6 -1127.56,-510.18 -618.2,-198.66 -1142.3,-281.44 -1842.11,-299.68l0 -687.57c1040.61,17.4 1809.71,128.6 2774.45,614.93 1388.4,699.84 2265.17,1496.86 3002.15,2858.88 64.94,120.02 83.48,121.46 140.2,247.68 297.1,661.14 621.28,1595.56 621.28,2524.71 0,1470.22 -211.46,2620.62 -945.62,3838.02l-500.76 749.04c-298.21,395.44 -528.11,595.34 -870.37,982.75 -114.48,129.58 -171.42,165.58 -287.82,315.52 -1140.74,1469.6 -1739.04,2415.2 -2357.1,4408.98 -354.06,1142.15 -350.72,2536.59 -664.82,2998.35 -208.48,306.44 -560.07,457.64 -911.59,461.18l0 -690.68z"/>
   <path class="fil2" d="M18262.49 6705.54c637.76,352.88 1455.14,1280.32 1833.73,1974.44 1029.6,1887.84 988.9,4176.23 -77.8,6008.87 -269.23,462.5 -509.33,741.52 -801.27,1094.26 -168.24,203.3 -268.68,284.64 -465.84,481.52 -133.36,133.16 -297.36,354.68 -440.12,505.05 -103.48,175.34 -760.1,995.22 -1118.38,1600.12 -957.72,1616.84 -1469.98,3202 -1716.71,5081.83 -61.5,468.56 -1.44,774.16 -479.04,860.64l0 -6698.71c7.92,-3174.99 13.56,-6350.27 0,-9524.2l0 -2398.48c692.89,19 1228.11,101.96 1842.11,299.28 400.1,128.58 774.92,305.86 1127.56,510.18l295.76 205.2z"/>
  </g>
  <path class="fil3" d="M13642.55 14106.81l2708.72 -13.37c26.71,140.86 7.75,478.29 9.05,639.5 1.79,222.35 -48.43,426.84 -167.58,647.46 -171.87,318.22 -503.37,577.85 -860.53,666.83 -854.37,212.87 -1699.16,-443.62 -1696.05,-1293.32 0.6,-163.71 -20.09,-511.79 6.39,-647.1zm2690.43 1792.1l-142.75 143.37c-319.16,286.55 -740.69,461.39 -1188.1,462.35 -504.23,1.1 -900.68,-169.02 -1310.48,-577.04 -265.56,-264.41 -407.63,-644.28 -447.34,-917 -44.45,-305.23 -30.9,-611.04 -30.66,-917.9 0.23,-287.96 -148.31,-631.87 -245.42,-917.43l-885.04 -2751.97c-40.24,-150.58 -102.7,-309.89 -155.18,-466.17l-141.29 -451.16c-92,-304.32 -330.06,-774.62 -187.74,-917.56 143.61,-144.23 273.02,-32.84 436.51,47.92l632.75 326.08c187.46,108.37 134.6,88.57 210.82,58.09l841.76 -441.31c212.12,-108.39 215.88,-72.34 421.43,30.1 152.64,76.07 268.17,130.49 421.83,215.81 119.39,66.28 330.18,145.22 421.84,222.46l841.77 -441.93c205.1,-103.34 208.7,-139.4 421.29,-31.93l843.67 437.7c94.25,37.55 26.63,34.42 105.35,-0.65 33.44,-14.91 78.98,-47.96 105.2,-62.24l631.34 -325c128.23,-64.04 293.97,-191.53 421.22,-64.83 133.03,132.46 37.6,310.58 -19.02,481.6l-513.11 1611.32c-28.18,84.26 -46.94,141.66 -74.81,225.89 -51.31,155.05 -105.69,296.69 -149.11,451.78 -87.02,310.89 -210.22,609.82 -286.99,918.59l-521.04 1611.33c-24.84,92.08 -10.87,576.35 -10.53,692.27 0.28,91.5 2.31,131.26 -9.35,225.75 -10.83,87.69 -5.12,132.51 -18.35,225.76 -48.29,340.46 -200.25,648.61 -420.47,895.95zm-12.7 -2219.28c-8.82,-56.29 146.57,-674.46 173.2,-782.91l825.79 -3478.02 405.85 -215.12c23.94,-12.26 50.04,-27.27 75.15,-39.86 6.18,-3.09 24.2,-12.13 30.07,-14.77l30.07 -12c3.23,-1.31 9.85,-4.22 15.04,-5.39l-1443.17 4490.28c-32.86,85.38 -29.36,73.95 -112,57.79zm-2982.96 -1528.48c61.06,60.8 452.58,170.28 320.77,-331.77 -75.08,-286.01 -535.01,-2306.36 -597.6,-2406.48 95.05,-91.31 309.28,-181.9 420.85,-237.85 95.46,-47.87 367.38,-214.28 435.96,-205.84 34.22,4.21 822.44,403.84 858.73,439.96l9.38 857.75c0.1,101.9 -26.74,206.12 68.38,300.83 53.69,53.46 217.41,53.11 270.87,-0.59 103.23,-103.67 66.93,-366.35 66.48,-571.99 -0.15,-68.99 -11.39,-569.19 6.25,-586.91 85.8,-86.18 749.67,-365.51 856.75,-468.37 217.45,134.61 719.27,344.77 843.7,449.62l-952.02 4020.06c-17.68,74.91 -43.95,213.62 -77,271.04l-662.13 8.79c-22.81,-120.26 -11.82,-1969.99 -12.51,-2294.72 -0.19,-90.66 23.41,-254.49 -53.39,-330.95 -73.06,-72.75 -228.22,-72.42 -300.97,0.65 -85.33,85.7 -51.55,516.41 -51.26,647.21 0.56,258.65 18.89,1858.26 -3.24,1971.37l-662.12 8.8c-39.7,-76.5 -111.36,-427.48 -137.97,-533.76 -29,-115.83 -90.23,-451.59 -165.31,-526.34 -114.24,-113.75 -378.32,-49.61 -340.55,196.37 21.86,142.36 204.31,778.72 192.35,857.35 -144.88,29 -127.72,-111.31 -251.85,-481.01l-1126.17 -3473.78c-31.52,-93.89 -180.78,-494.67 -166.81,-586.53 126.02,106.19 430.6,188.48 527.32,284.78l77.98 330.89c69.78,277.43 535.52,2322.12 605.13,2391.42z"/>
 </g>
</svg>
