<?xml version="1.0" encoding="UTF-8"?>
<!DOCTYPE svg PUBLIC "-//W3C//DTD SVG 1.1//EN" "http://www.w3.org/Graphics/SVG/1.1/DTD/svg11.dtd">
<!-- Creator: CorelDRAW 2021.5 -->
<svg xmlns="http://www.w3.org/2000/svg" xml:space="preserve" width="300mm" height="300mm" version="1.1" style="shape-rendering:geometricPrecision; text-rendering:geometricPrecision; image-rendering:optimizeQuality; fill-rule:evenodd; clip-rule:evenodd"
viewBox="0 0 30000 30000"
 xmlns:xlink="http://www.w3.org/1999/xlink"
 xmlns:xodm="http://www.corel.com/coreldraw/odm/2003">
 <defs>
  <style type="text/css">
   <![CDATA[
    .fil3 {fill:#FEFEFE}
    .fil0 {fill:#FEFEFE}
    .fil2 {fill:#4A89DC}
    .fil1 {fill:#5D9CEC}
   ]]>
  </style>
 </defs>
 <g id="Layer_x0020_1">
  <metadata id="CorelCorpID_0Corel-Layer"/>
  <g id="_2097371496352">
   <path class="fil0" d="M14997.07 24312.23c-477.6,-86.5 -417.54,-392.08 -479.04,-860.64 -246.72,-1879.82 -758.98,-3464.98 -1716.7,-5081.82 -358.28,-604.9 -1014.9,-1424.77 -1118.38,-1600.11 -142.76,-150.36 -306.76,-371.88 -440.12,-505.04 -197.16,-196.88 -297.6,-278.22 -465.84,-481.52 -291.94,-352.74 -532.04,-631.76 -801.26,-1094.26 -1066.7,-1832.64 -1107.4,-4121.02 -77.8,-6008.86 378.58,-694.12 1195.96,-1621.56 1833.72,-1974.44l295.76 -205.2c352.64,-204.32 727.46,-381.6 1127.56,-510.18 618.2,-198.66 1142.3,-281.44 1842.1,-299.68l0 -687.56c-1040.6,17.4 -1809.7,128.6 -2774.44,614.92 -1388.4,699.84 -2265.16,1496.86 -3002.14,2858.88 -64.94,120.02 -83.48,121.46 -140.2,247.68 -297.1,661.14 -621.28,1595.56 -621.28,2524.7 0,1470.22 211.46,2620.62 945.62,3838.02l500.76 749.04c298.2,395.44 528.1,595.34 870.36,982.74 114.48,129.58 171.42,165.58 287.82,315.52 1140.74,1469.59 1739.04,2415.19 2357.1,4408.97 354.06,1142.14 350.72,2536.58 664.82,2998.34 208.48,306.44 560.06,457.64 911.58,461.18l0 -690.68z"/>
   <path class="fil1" d="M11731.65 6705.54c-637.76,352.88 -1455.14,1280.32 -1833.72,1974.44 -1029.6,1887.84 -988.9,4176.22 77.8,6008.86 269.22,462.5 509.32,741.52 801.26,1094.26 168.24,203.3 268.68,284.64 465.84,481.52 133.36,133.16 297.36,354.68 440.12,505.04 103.48,175.34 760.1,995.21 1118.38,1600.11 957.72,1616.84 1469.98,3202 1716.7,5081.82 61.5,468.56 1.44,774.16 479.04,860.64l0 -6698.69c-7.92,-3174.98 -13.56,-6350.26 0,-9524.18l0 -2398.48c-692.88,19 -1228.1,101.96 -1842.1,299.28 -400.1,128.58 -774.92,305.86 -1127.56,510.18l-295.76 205.2z"/>
   <path class="fil0" d="M14997.07 24312.23c477.6,-86.5 417.54,-392.08 479.04,-860.64 246.72,-1879.82 758.98,-3464.98 1716.7,-5081.82 358.28,-604.9 1014.9,-1424.77 1118.38,-1600.11 142.76,-150.36 306.76,-371.88 440.12,-505.04 197.16,-196.88 297.6,-278.22 465.84,-481.52 291.94,-352.74 532.04,-631.76 801.26,-1094.26 1066.7,-1832.64 1107.4,-4121.02 77.8,-6008.86 -378.58,-694.12 -1195.96,-1621.56 -1833.72,-1974.44l-295.76 -205.2c-352.64,-204.32 -727.46,-381.6 -1127.56,-510.18 -618.2,-198.66 -1142.3,-281.44 -1842.1,-299.68l0 -687.56c1040.6,17.4 1809.7,128.6 2774.44,614.92 1388.4,699.84 2265.16,1496.86 3002.14,2858.88 64.94,120.02 83.48,121.46 140.2,247.68 297.1,661.14 621.28,1595.56 621.28,2524.7 0,1470.22 -211.46,2620.62 -945.62,3838.02l-500.76 749.04c-298.2,395.44 -528.1,595.34 -870.36,982.74 -114.48,129.58 -171.42,165.58 -287.82,315.52 -1140.74,1469.59 -1739.04,2415.19 -2357.1,4408.97 -354.06,1142.14 -350.72,2536.58 -664.82,2998.34 -208.48,306.44 -560.06,457.64 -911.58,461.18l0 -690.68z"/>
   <path class="fil2" d="M18262.49 6705.54c637.76,352.88 1455.14,1280.32 1833.72,1974.44 1029.6,1887.84 988.9,4176.22 -77.8,6008.86 -269.22,462.5 -509.32,741.52 -801.26,1094.26 -168.24,203.3 -268.68,284.64 -465.84,481.52 -133.36,133.16 -297.36,354.68 -440.12,505.04 -103.48,175.34 -760.1,995.21 -1118.38,1600.11 -957.72,1616.84 -1469.98,3202 -1716.7,5081.82 -61.5,468.56 -1.44,774.16 -479.04,860.64l0 -6698.69c7.92,-3174.98 13.56,-6350.26 0,-9524.18l0 -2398.48c692.88,19 1228.1,101.96 1842.1,299.28 400.1,128.58 774.92,305.86 1127.56,510.18l295.76 205.2z"/>
  </g>
  <path class="fil3" d="M12376.12 11230.43c70.25,5.84 242.49,86.09 318.85,116.64l1620.09 648.05c812.59,324.75 524.75,329.22 1334.96,5.17l1620.09 -648.05c76.07,-30.46 261.33,-115.94 331.82,-121.81l0 2812.51c-73.09,6.07 -205.9,70.67 -283.3,97.73 -105.73,36.97 -202.65,67 -299.59,99.62 -1461.79,491.78 -2908.35,394.26 -4345.97,-95.1 -80.7,-27.47 -222.38,-96.05 -296.95,-102.25l0 -2812.51zm6096.78 1324.6c-9.12,-58.93 49.38,-176.13 80.08,-210.24 166.78,-185.34 478.81,-76.82 496.16,177.42 17.57,257.59 -299.57,388.25 -481.36,228.27 -29.17,-25.67 -44.43,-51.25 -59.04,-86.12 -3.26,-7.78 -35.34,-106.08 -35.84,-109.33zm-7403.23 -2213.71c83.13,-19.37 166.55,-59.38 238.49,-88.14 86.75,-34.67 157.41,-62.98 246.22,-98.52l3434.65 -1365.99c45.36,0 847.04,330.97 972.07,380.98 204.14,81.64 2828.67,1144.04 2947.28,1171.67l0 36.29c-116.23,27.07 -2727.09,1083.57 -2934.3,1166.5 -124.72,49.92 -939.7,386.15 -985.05,386.15 -45.37,0 -847.05,-330.97 -972.08,-380.98 -336.28,-134.5 -652,-260.94 -985.01,-394.02l-1962.27 -813.94zm-580.64 18.14c0,141.18 176.63,175.9 339.55,241.1l1257.22 502.86 0 2812.5c-0.09,359.78 -41.51,309.12 355.18,461.35 711.62,273.09 1558.34,482.2 2348.45,482.2 958.12,0 1561.14,-75.7 2442.81,-369.69 706.49,-235.57 660.23,-212.06 660.01,-555.72l0 -2830.64c198.01,-95.01 527.81,-195.32 725.81,-290.32l0 1161.29c-107.36,8.93 -235.78,109.94 -294.98,176.79 -337.96,381.64 -26.06,966.35 385.71,966.35 188.47,0 320.14,-19.25 467.98,-167.1 212.07,-212.07 225.49,-563.29 35.07,-789.58 -59.37,-70.58 -192.9,-177.27 -303.46,-186.46l0 -1288.31c71.01,-5.92 255.14,-91.28 331.84,-121.8 104.96,-41.75 248.81,-72.75 248.81,-204.82 0,-152.05 -268.75,-212.73 -482.15,-298.08 -197.4,-78.96 -379.04,-151.57 -570.27,-228.13l-2281.08 -912.46c-188.98,-75.64 -1059.04,-448.42 -1184.64,-448.42 -73.72,0 -3797.96,1510.29 -4272.02,1697.74 -97.27,38.46 -209.84,66.93 -209.84,189.35z"/>
 </g>
</svg>
