<?xml version="1.0" encoding="UTF-8"?>
<!DOCTYPE svg PUBLIC "-//W3C//DTD SVG 1.1//EN" "http://www.w3.org/Graphics/SVG/1.1/DTD/svg11.dtd">
<!-- Creator: CorelDRAW 2021.5 -->
<svg xmlns="http://www.w3.org/2000/svg" xml:space="preserve" width="300mm" height="300mm" version="1.1" style="shape-rendering:geometricPrecision; text-rendering:geometricPrecision; image-rendering:optimizeQuality; fill-rule:evenodd; clip-rule:evenodd"
viewBox="0 0 30000 30000"
 xmlns:xlink="http://www.w3.org/1999/xlink"
 xmlns:xodm="http://www.corel.com/coreldraw/odm/2003">
 <defs>
  <style type="text/css">
   <![CDATA[
    .fil3 {fill:#FEFEFE}
    .fil0 {fill:#FEFEFE}
    .fil2 {fill:#D770AD}
    .fil1 {fill:#EC87C0}
   ]]>
  </style>
 </defs>
 <g id="Layer_x0020_1">
  <metadata id="CorelCorpID_0Corel-Layer"/>
  <g id="_2096368796000">
   <path class="fil0" d="M14997.07 24312.25c-477.6,-86.5 -417.54,-392.08 -479.04,-860.64 -246.72,-1879.82 -758.98,-3464.98 -1716.7,-5081.82 -358.28,-604.9 -1014.9,-1424.78 -1118.38,-1600.12 -142.76,-150.36 -306.76,-371.88 -440.12,-505.04 -197.16,-196.88 -297.6,-278.22 -465.84,-481.52 -291.94,-352.74 -532.04,-631.76 -801.26,-1094.26 -1066.7,-1832.64 -1107.4,-4121.02 -77.8,-6008.86 378.58,-694.12 1195.96,-1621.56 1833.72,-1974.44l295.76 -205.2c352.64,-204.32 727.46,-381.6 1127.56,-510.18 618.2,-198.66 1142.3,-281.44 1842.1,-299.68l0 -687.56c-1040.6,17.4 -1809.7,128.6 -2774.44,614.92 -1388.4,699.84 -2265.16,1496.86 -3002.14,2858.88 -64.94,120.02 -83.48,121.46 -140.2,247.68 -297.1,661.14 -621.28,1595.56 -621.28,2524.7 0,1470.22 211.46,2620.62 945.62,3838.02l500.76 749.04c298.2,395.44 528.1,595.34 870.36,982.74 114.48,129.58 171.42,165.58 287.82,315.52 1140.74,1469.6 1739.04,2415.2 2357.1,4408.98 354.06,1142.14 350.72,2536.58 664.82,2998.34 208.48,306.44 560.06,457.64 911.58,461.18l0 -690.68z"/>
   <path class="fil1" d="M11731.65 6705.55c-637.76,352.88 -1455.14,1280.32 -1833.72,1974.44 -1029.6,1887.84 -988.9,4176.22 77.8,6008.86 269.22,462.5 509.32,741.52 801.26,1094.26 168.24,203.3 268.68,284.64 465.84,481.52 133.36,133.16 297.36,354.68 440.12,505.04 103.48,175.34 760.1,995.22 1118.38,1600.12 957.72,1616.84 1469.98,3202 1716.7,5081.82 61.5,468.56 1.44,774.16 479.04,860.64l0 -6698.7c-7.92,-3174.98 -13.56,-6350.26 0,-9524.18l0 -2398.48c-692.88,19 -1228.1,101.96 -1842.1,299.28 -400.1,128.58 -774.92,305.86 -1127.56,510.18l-295.76 205.2z"/>
   <path class="fil0" d="M14997.07 24312.25c477.6,-86.5 417.54,-392.08 479.04,-860.64 246.72,-1879.82 758.98,-3464.98 1716.7,-5081.82 358.28,-604.9 1014.9,-1424.78 1118.38,-1600.12 142.76,-150.36 306.76,-371.88 440.12,-505.04 197.16,-196.88 297.6,-278.22 465.84,-481.52 291.94,-352.74 532.04,-631.76 801.26,-1094.26 1066.7,-1832.64 1107.4,-4121.02 77.8,-6008.86 -378.58,-694.12 -1195.96,-1621.56 -1833.72,-1974.44l-295.76 -205.2c-352.64,-204.32 -727.46,-381.6 -1127.56,-510.18 -618.2,-198.66 -1142.3,-281.44 -1842.1,-299.68l0 -687.56c1040.6,17.4 1809.7,128.6 2774.44,614.92 1388.4,699.84 2265.16,1496.86 3002.14,2858.88 64.94,120.02 83.48,121.46 140.2,247.68 297.1,661.14 621.28,1595.56 621.28,2524.7 0,1470.22 -211.46,2620.62 -945.62,3838.02l-500.76 749.04c-298.2,395.44 -528.1,595.34 -870.36,982.74 -114.48,129.58 -171.42,165.58 -287.82,315.52 -1140.74,1469.6 -1739.04,2415.2 -2357.1,4408.98 -354.06,1142.14 -350.72,2536.58 -664.82,2998.34 -208.48,306.44 -560.06,457.64 -911.58,461.18l0 -690.68z"/>
   <path class="fil2" d="M18262.49 6705.55c637.76,352.88 1455.14,1280.32 1833.72,1974.44 1029.6,1887.84 988.9,4176.22 -77.8,6008.86 -269.22,462.5 -509.32,741.52 -801.26,1094.26 -168.24,203.3 -268.68,284.64 -465.84,481.52 -133.36,133.16 -297.36,354.68 -440.12,505.04 -103.48,175.34 -760.1,995.22 -1118.38,1600.12 -957.72,1616.84 -1469.98,3202 -1716.7,5081.82 -61.5,468.56 -1.44,774.16 -479.04,860.64l0 -6698.7c7.92,-3174.98 13.56,-6350.26 0,-9524.18l0 -2398.48c692.88,19 1228.1,101.96 1842.1,299.28 400.1,128.58 774.92,305.86 1127.56,510.18l295.76 205.2z"/>
  </g>
  <g id="_2096368796720">
   <path class="fil3" d="M11614.37 14549.27l6750 0 0 312.5 -6750 0 0 -312.5zm3371.14 -1144.48l835.86 828.12 -1660.12 3.86 824.26 -831.98zm234.36 -226.64l828.14 -835.86 3.86 1660.12 -832 -824.26zm-1289.14 828.12l-3.86 -1660.12 832 824.26 -828.14 835.86zm226.64 -1890.62l1660.12 -3.88 -824.26 832 -835.86 -828.12zm-543 -175.74l0 2296.86 -312.5 0 0 -2750 3375 0 0 2750 -312.5 0 0 -2296.86c0,-77.24 -63.4,-140.64 -140.62,-140.64l-2468.76 0c-77.22,0 -140.62,63.4 -140.62,140.64zm-2031.26 -1281.26l-222.52 -214.98c228.58,-258.74 754.16,-955.86 990.2,-1251.72 57.52,-72.1 109.22,-133.96 165.36,-209.66 186.8,-251.88 150.38,-178.86 467.52,-282.46l2005.7 -612.22 2281.72 695.58c91.92,39 286.74,319.38 350.04,399.96l496.86 628.12c59.18,71.92 105.2,137.96 164.68,210.34l331.7 418.3 -214.98 222.52c-108.92,-158.38 -472.46,-593.14 -621.94,-791.86 -52.24,-69.46 -97.8,-124.14 -152.38,-191.38l-316.36 -402.38c-225.84,-300.28 -155.1,-205.18 -684.42,-378.08l-1075.72 -330.52c-504.86,-139.56 -442.48,-217.72 -830.86,-87.48 -94.16,31.58 -181.84,58.14 -273.22,86.16l-1076.82 329.44c-81.26,22.44 -183.9,53.88 -274.96,84.4 -282.16,94.62 -220.72,31.5 -416.02,287.12 -52.88,69.22 -102.76,131.7 -158.22,201.14 -53.1,66.48 -95.68,126.26 -150.5,193.26 -57.28,70 -102.16,132.14 -157.7,201.68 -52.84,66.16 -98.68,122.84 -153.54,190.2l-473.62 604.52zm-593.74 -203.12c0,100.34 58.16,128.58 121.1,191.4l296.86 296.88c201.54,201.88 246.5,138.02 397.1,-48.22 10.5,-12.96 20.1,-23.94 28.68,-33.82l0 3375c-635.36,0 -531.24,-110.46 -531.24,796.88 0,77.24 63.4,140.62 140.62,140.62l7093.76 0c77.22,0 140.62,-63.38 140.62,-140.62l0 -656.24c0,-193.86 -280,-140.64 -531.26,-140.64l0 -906.24c0,-201.52 -312.5,-201.52 -312.5,0l0 906.24 -843.74 0 0 -2921.86c0,-77.24 -63.4,-140.64 -140.62,-140.64l-3718.76 0c-77.22,0 -140.62,63.4 -140.62,140.64l0 2921.86 -843.76 0 0 -3750c0,-39.44 245.54,-339.2 284.84,-387.04 77,-93.7 572.26,-739.16 612.94,-762.06l1561.06 -485.8c276.86,-90.96 343.92,-137.72 531.6,-74.26l525.2 162.3c335.36,91.72 694.04,223.96 1037.84,321.52 354.46,100.58 250.24,95.36 559.48,471.76l532.06 671.08c74.16,87.48 42.48,286.66 42.48,473.14l-0.94 1032.18c3.6,193.28 176.78,231.12 271.9,129.38 35.94,-38.44 41.38,-60.24 42.54,-129.32l-1 -1047.88c98.34,113.14 133.56,203.14 250,203.14 86.8,0 235.78,-181.08 324.22,-269.54 345.6,-345.6 396.66,-260.04 -70.58,-827.84 -64.4,-78.24 -115.04,-149.22 -179.08,-227.18l-737.56 -934.32c-182.6,-232.34 -190.98,-279.72 -467.6,-360.52 -107.1,-31.28 -215.96,-66 -320.48,-101.4 -161.24,-54.6 -1820.38,-576.08 -1939.54,-576.08 -192.02,0 -1095.82,315.74 -1312.5,375 -212.62,58.14 -414.4,131.76 -634.02,194.08 -146.92,41.7 -518.5,143.16 -612.54,231.24 -82.48,77.26 -288.68,350.82 -371.68,456.42l-923.78 1169.98c-33.34,40.94 -54.22,74.6 -87.98,115.14 -34.1,40.92 -73.12,77.54 -73.12,145.64z"/>
   <path class="fil3" d="M14676.87 10033.65c0,-498.16 625,-402.42 625,-62.5 0,508.88 -625,415.48 -625,62.5zm-328.12 -62.5c0,190.58 47.52,338.64 176.2,480.04 28.94,31.8 130.04,103.28 172.5,124.38 637.1,316.46 1269.2,-490 733.42,-1030.3 -415.76,-419.26 -1082.12,-58.3 -1082.12,425.88z"/>
   <path class="fil3" d="M17833.11 12627.41c0,226.8 312.5,222.68 312.5,0 0,-201.52 -312.5,-201.52 -312.5,0z"/>
  </g>
 </g>
</svg>
