<?xml version="1.0" encoding="UTF-8"?>
<!DOCTYPE svg PUBLIC "-//W3C//DTD SVG 1.1//EN" "http://www.w3.org/Graphics/SVG/1.1/DTD/svg11.dtd">
<!-- Creator: CorelDRAW 2021.5 -->
<svg xmlns="http://www.w3.org/2000/svg" xml:space="preserve" width="300mm" height="300mm" version="1.1" style="shape-rendering:geometricPrecision; text-rendering:geometricPrecision; image-rendering:optimizeQuality; fill-rule:evenodd; clip-rule:evenodd"
viewBox="0 0 30000 30000"
 xmlns:xlink="http://www.w3.org/1999/xlink"
 xmlns:xodm="http://www.corel.com/coreldraw/odm/2003">
 <defs>
  <style type="text/css">
   <![CDATA[
    .fil3 {fill:#FEFEFE}
    .fil0 {fill:#FEFEFE}
    .fil2 {fill:#37BC9B}
    .fil1 {fill:#48CFAD}
   ]]>
  </style>
 </defs>
 <g id="Layer_x0020_1">
  <metadata id="CorelCorpID_0Corel-Layer"/>
  <g id="_2097375476272">
   <path class="fil0" d="M14997.07 24312.25c-477.6,-86.5 -417.54,-392.08 -479.04,-860.64 -246.72,-1879.82 -758.98,-3464.98 -1716.7,-5081.82 -358.28,-604.9 -1014.9,-1424.78 -1118.38,-1600.12 -142.76,-150.36 -306.76,-371.88 -440.12,-505.04 -197.16,-196.88 -297.6,-278.22 -465.84,-481.52 -291.94,-352.74 -532.04,-631.76 -801.26,-1094.26 -1066.7,-1832.64 -1107.4,-4121.02 -77.8,-6008.86 378.58,-694.12 1195.96,-1621.56 1833.72,-1974.44l295.76 -205.2c352.64,-204.32 727.46,-381.6 1127.56,-510.18 618.2,-198.66 1142.3,-281.44 1842.1,-299.68l0 -687.56c-1040.6,17.4 -1809.7,128.6 -2774.44,614.92 -1388.4,699.84 -2265.16,1496.86 -3002.14,2858.88 -64.94,120.02 -83.48,121.46 -140.2,247.68 -297.1,661.14 -621.28,1595.56 -621.28,2524.7 0,1470.22 211.46,2620.62 945.62,3838.02l500.76 749.04c298.2,395.44 528.1,595.34 870.36,982.74 114.48,129.58 171.42,165.58 287.82,315.52 1140.74,1469.6 1739.04,2415.2 2357.1,4408.98 354.06,1142.14 350.72,2536.58 664.82,2998.34 208.48,306.44 560.06,457.64 911.58,461.18l0 -690.68z"/>
   <path class="fil1" d="M11731.65 6705.55c-637.76,352.88 -1455.14,1280.32 -1833.72,1974.44 -1029.6,1887.84 -988.9,4176.22 77.8,6008.86 269.22,462.5 509.32,741.52 801.26,1094.26 168.24,203.3 268.68,284.64 465.84,481.52 133.36,133.16 297.36,354.68 440.12,505.04 103.48,175.34 760.1,995.22 1118.38,1600.12 957.72,1616.84 1469.98,3202 1716.7,5081.82 61.5,468.56 1.44,774.16 479.04,860.64l0 -6698.7c-7.92,-3174.98 -13.56,-6350.26 0,-9524.18l0 -2398.48c-692.88,19 -1228.1,101.96 -1842.1,299.28 -400.1,128.58 -774.92,305.86 -1127.56,510.18l-295.76 205.2z"/>
   <path class="fil0" d="M14997.07 24312.25c477.6,-86.5 417.54,-392.08 479.04,-860.64 246.72,-1879.82 758.98,-3464.98 1716.7,-5081.82 358.28,-604.9 1014.9,-1424.78 1118.38,-1600.12 142.76,-150.36 306.76,-371.88 440.12,-505.04 197.16,-196.88 297.6,-278.22 465.84,-481.52 291.94,-352.74 532.04,-631.76 801.26,-1094.26 1066.7,-1832.64 1107.4,-4121.02 77.8,-6008.86 -378.58,-694.12 -1195.96,-1621.56 -1833.72,-1974.44l-295.76 -205.2c-352.64,-204.32 -727.46,-381.6 -1127.56,-510.18 -618.2,-198.66 -1142.3,-281.44 -1842.1,-299.68l0 -687.56c1040.6,17.4 1809.7,128.6 2774.44,614.92 1388.4,699.84 2265.16,1496.86 3002.14,2858.88 64.94,120.02 83.48,121.46 140.2,247.68 297.1,661.14 621.28,1595.56 621.28,2524.7 0,1470.22 -211.46,2620.62 -945.62,3838.02l-500.76 749.04c-298.2,395.44 -528.1,595.34 -870.36,982.74 -114.48,129.58 -171.42,165.58 -287.82,315.52 -1140.74,1469.6 -1739.04,2415.2 -2357.1,4408.98 -354.06,1142.14 -350.72,2536.58 -664.82,2998.34 -208.48,306.44 -560.06,457.64 -911.58,461.18l0 -690.68z"/>
   <path class="fil2" d="M18262.49 6705.55c637.76,352.88 1455.14,1280.32 1833.72,1974.44 1029.6,1887.84 988.9,4176.22 -77.8,6008.86 -269.22,462.5 -509.32,741.52 -801.26,1094.26 -168.24,203.3 -268.68,284.64 -465.84,481.52 -133.36,133.16 -297.36,354.68 -440.12,505.04 -103.48,175.34 -760.1,995.22 -1118.38,1600.12 -957.72,1616.84 -1469.98,3202 -1716.7,5081.82 -61.5,468.56 -1.44,774.16 -479.04,860.64l0 -6698.7c7.92,-3174.98 13.56,-6350.26 0,-9524.18l0 -2398.48c692.88,19 1228.1,101.96 1842.1,299.28 400.1,128.58 774.92,305.86 1127.56,510.18l295.76 205.2z"/>
  </g>
  <g id="_2097375474880">
   <path class="fil3" d="M15103.67 11013.2c206.64,-54.8 1284.01,661.21 1450.44,787.36 674.38,511.13 1214.56,1345.31 1106.03,2289.55 -57.37,499.08 -96.64,446.86 -544.34,589.28 -1406.35,447.43 -2478.79,470.98 -3898.31,23.92 -133.68,-42.1 -294.38,-91.66 -421.9,-145.62 -321.93,-136.19 -207.13,-1095.62 -107.61,-1397.14 320.37,-970.58 1568.62,-1922.68 2415.69,-2147.35zm220.42 -595.7c80.02,-192.29 116.09,-430.28 -162.75,-445.47 -292.99,-15.95 -278.83,230 -216.21,445.47 -582.84,156.02 -1560.15,827.83 -2020.79,1273.82 -737.03,713.61 -1283.72,1815.65 -891.54,3093.47 884.91,355.84 2022.6,650.63 3095.67,658.51 824.29,6.06 2514.17,-335.79 3090.54,-663.65 83.79,-226.83 130.36,-531.86 133.38,-817.17 1.54,-145.31 -6.45,-346.18 -24.2,-454.73 -19.53,-119.35 -63.46,-275.72 -92.36,-378.75 -151.76,-540.84 -553.79,-1096.86 -907.91,-1432.63 -502.83,-476.79 -1399.52,-1109.49 -2003.83,-1278.87z"/>
   <path class="fil3" d="M16364.65 8203.59c-111.44,140.47 -1.21,104.5 -249.43,359.78 -757.52,779.04 -2119.35,-193.58 -1382.53,-1248.46 69.6,-99.65 51.23,-80.42 154.93,-146.95l123.1 -76.99c58.43,-40.84 13,-7.22 48.33,-37.69 -515.3,-7.66 -900.77,384.19 -1051.42,740.7 -443.36,1049.25 690.12,2071.12 1673.87,1573.83 373.61,-188.86 713.1,-566.19 683.15,-1164.22z"/>
   <path class="fil3" d="M12477.54 15505.72c1753.89,667.45 3150.12,743.73 4952.09,122.96 332.63,-114.6 375.34,-82.03 406.01,-421.96 -842.82,263.11 -1705.75,553.02 -2707.32,548.98 -1333.13,-5.38 -2573.37,-531.18 -2707.91,-536.33l57.13 286.35z"/>
   <path class="fil3" d="M15243.59 9960.49c197.36,-371.36 -94.26,-378.06 -164.13,-359.77 -93.99,24.59 -153.62,106.53 -115.79,240.05 36.79,129.86 132.97,123.01 279.92,119.72z"/>
  </g>
 </g>
</svg>
