<?xml version="1.0" encoding="UTF-8"?>
<!DOCTYPE svg PUBLIC "-//W3C//DTD SVG 1.1//EN" "http://www.w3.org/Graphics/SVG/1.1/DTD/svg11.dtd">
<!-- Creator: CorelDRAW 2021.5 -->
<svg xmlns="http://www.w3.org/2000/svg" xml:space="preserve" width="300mm" height="300mm" version="1.1" style="shape-rendering:geometricPrecision; text-rendering:geometricPrecision; image-rendering:optimizeQuality; fill-rule:evenodd; clip-rule:evenodd"
viewBox="0 0 30000 30000"
 xmlns:xlink="http://www.w3.org/1999/xlink"
 xmlns:xodm="http://www.corel.com/coreldraw/odm/2003">
 <defs>
  <style type="text/css">
   <![CDATA[
    .fil3 {fill:#FEFEFE}
    .fil0 {fill:#FEFEFE}
    .fil2 {fill:#6A51A4}
    .fil1 {fill:#8067BA}
   ]]>
  </style>
 </defs>
 <g id="Layer_x0020_1">
  <metadata id="CorelCorpID_0Corel-Layer"/>
  <g id="_2133693671120">
   <path class="fil0" d="M14997.06 24312.25c-477.6,-86.5 -417.54,-392.08 -479.04,-860.64 -246.72,-1879.82 -758.98,-3464.98 -1716.7,-5081.82 -358.28,-604.9 -1014.9,-1424.78 -1118.38,-1600.12 -142.76,-150.36 -306.76,-371.88 -440.12,-505.04 -197.16,-196.88 -297.6,-278.22 -465.84,-481.52 -291.94,-352.74 -532.04,-631.76 -801.26,-1094.26 -1066.7,-1832.64 -1107.4,-4121.02 -77.8,-6008.86 378.58,-694.12 1195.96,-1621.56 1833.72,-1974.44l295.76 -205.2c352.64,-204.32 727.46,-381.6 1127.56,-510.18 618.2,-198.66 1142.3,-281.44 1842.1,-299.68l0 -687.56c-1040.6,17.4 -1809.7,128.6 -2774.44,614.92 -1388.4,699.84 -2265.16,1496.86 -3002.14,2858.88 -64.94,120.02 -83.48,121.46 -140.2,247.68 -297.1,661.14 -621.28,1595.56 -621.28,2524.7 0,1470.22 211.46,2620.62 945.62,3838.02l500.76 749.04c298.2,395.44 528.1,595.34 870.36,982.74 114.48,129.58 171.42,165.58 287.82,315.52 1140.74,1469.6 1739.04,2415.2 2357.1,4408.98 354.06,1142.14 350.72,2536.58 664.82,2998.34 208.48,306.44 560.06,457.64 911.58,461.18l0 -690.68z"/>
   <path class="fil1" d="M11731.64 6705.55c-637.76,352.88 -1455.14,1280.32 -1833.72,1974.44 -1029.6,1887.84 -988.9,4176.22 77.8,6008.86 269.22,462.5 509.32,741.52 801.26,1094.26 168.24,203.3 268.68,284.64 465.84,481.52 133.36,133.16 297.36,354.68 440.12,505.04 103.48,175.34 760.1,995.22 1118.38,1600.12 957.72,1616.84 1469.98,3202 1716.7,5081.82 61.5,468.56 1.44,774.16 479.04,860.64l0 -6698.7c-7.92,-3174.98 -13.56,-6350.26 0,-9524.18l0 -2398.48c-692.88,19 -1228.1,101.96 -1842.1,299.28 -400.1,128.58 -774.92,305.86 -1127.56,510.18l-295.76 205.2z"/>
   <path class="fil0" d="M14997.06 24312.25c477.6,-86.5 417.54,-392.08 479.04,-860.64 246.72,-1879.82 758.98,-3464.98 1716.7,-5081.82 358.28,-604.9 1014.9,-1424.78 1118.38,-1600.12 142.76,-150.36 306.76,-371.88 440.12,-505.04 197.16,-196.88 297.6,-278.22 465.84,-481.52 291.94,-352.74 532.04,-631.76 801.26,-1094.26 1066.7,-1832.64 1107.4,-4121.02 77.8,-6008.86 -378.58,-694.12 -1195.96,-1621.56 -1833.72,-1974.44l-295.76 -205.2c-352.64,-204.32 -727.46,-381.6 -1127.56,-510.18 -618.2,-198.66 -1142.3,-281.44 -1842.1,-299.68l0 -687.56c1040.6,17.4 1809.7,128.6 2774.44,614.92 1388.4,699.84 2265.16,1496.86 3002.14,2858.88 64.94,120.02 83.48,121.46 140.2,247.68 297.1,661.14 621.28,1595.56 621.28,2524.7 0,1470.22 -211.46,2620.62 -945.62,3838.02l-500.76 749.04c-298.2,395.44 -528.1,595.34 -870.36,982.74 -114.48,129.58 -171.42,165.58 -287.82,315.52 -1140.74,1469.6 -1739.04,2415.2 -2357.1,4408.98 -354.06,1142.14 -350.72,2536.58 -664.82,2998.34 -208.48,306.44 -560.06,457.64 -911.58,461.18l0 -690.68z"/>
   <path class="fil2" d="M18262.48 6705.55c637.76,352.88 1455.14,1280.32 1833.72,1974.44 1029.6,1887.84 988.9,4176.22 -77.8,6008.86 -269.22,462.5 -509.32,741.52 -801.26,1094.26 -168.24,203.3 -268.68,284.64 -465.84,481.52 -133.36,133.16 -297.36,354.68 -440.12,505.04 -103.48,175.34 -760.1,995.22 -1118.38,1600.12 -957.72,1616.84 -1469.98,3202 -1716.7,5081.82 -61.5,468.56 -1.44,774.16 -479.04,860.64l0 -6698.7c7.92,-3174.98 13.56,-6350.26 0,-9524.18l0 -2398.48c692.88,19 1228.1,101.96 1842.1,299.28 400.1,128.58 774.92,305.86 1127.56,510.18l295.76 205.2z"/>
  </g>
  <path class="fil3" d="M16464.9 14981.81c0,-434.68 111.52,-890.23 243.81,-1279.57 60.54,-178.14 150.43,-370.34 241.17,-520.52 50.01,-82.77 97.2,-158.59 149.63,-231.22 53.17,-73.64 115.75,-138.36 174.69,-206.16l0 2332.68 -809.3 0 0 -95.21zm-3760.86 -2237.47c58.93,67.8 121.52,132.52 174.68,206.16 421.29,583.53 634.62,1398.61 634.62,2126.52l-809.3 0 0 -2332.68zm2602.45 -2808.74c206.53,-138.3 262.75,-146.08 507.62,-333.41 25.06,-19.17 56.25,-40.02 81.88,-60.94 33.09,-27.01 41.65,-42.18 76.98,-65.84 147.08,34.27 485.57,286.32 607.21,408.38 356.98,358.22 622.95,853.02 675.72,1387.19 30.7,310.71 18.3,677.26 18.3,1013.17 -165.78,-79.54 -759.5,-24.89 -1348.85,-809.28 -158.85,-211.43 -275.45,-433.23 -380.86,-698.21 -54.18,-136.21 -87.51,-252.1 -136.84,-402.68 -30.51,-93.13 -98.42,-339.32 -101.16,-438.38zm-2602.45 2348.55c0,-948.8 -27.29,-1577.16 558.94,-2249.81 141.85,-162.75 103.73,-122.01 262.69,-260.96 103.03,-90.07 360.83,-270.3 479.6,-297.97 117.2,78.49 244.14,209.68 486.8,354.24 64.08,38.17 122.66,67.77 179.68,105.95 -3.69,165.61 -174.37,680.35 -237.84,841.22 -102.04,258.6 -226.55,492.45 -381.02,698.05 -155.04,206.34 -327.25,389.02 -554.48,524.59 -124.65,74.38 -212.22,120.19 -363.33,176.2 -137.04,50.8 -409.99,98.4 -431.04,108.49zm3665.65 -3316.53c198.25,46.19 577.75,396.14 733.93,551.41 504.21,501.28 805.32,1276.76 805.32,2082.77l0 3475.22 -253.9 0 0 -3665.64c0,-589.75 -278.82,-1181.89 -632.35,-1620.99 -172.36,-214.1 -514.2,-484.26 -764.08,-616.48l111.08 -206.29zm-4046.5 2443.76l0 3665.64 -253.89 0 0 -3459.35c0,-702.57 181.18,-1203.34 451,-1643.65 156.38,-255.19 275.46,-374.37 473.31,-574.02 88.83,-89.64 183.51,-160.9 286.06,-237.6 66.62,-49.84 250.37,-176.49 328.88,-194.78 18.85,35.61 30.59,66.3 54.16,104.53 25.69,41.66 44.33,54.61 56.92,101.76 -164.93,87.27 -400.3,247.91 -527.7,376.81 -74.17,75.04 -153.7,145.07 -221.98,222.34 -132.44,149.91 -270.53,361.23 -361.13,543.37 -160.89,323.45 -285.63,708.38 -285.63,1094.95zm3205.46 -3570.43c248.1,0 405.21,193.99 470.39,386.51 186.55,550.95 -75.36,803.17 -472.62,1102.9 -78.68,59.37 -463.29,319.61 -537.3,319.61 -109.35,0 -630.46,-388.06 -741.15,-480.74 -271.03,-226.92 -396.45,-495.86 -296.13,-858.05 42.98,-155.2 117.14,-291.89 225.03,-377.98 202.32,-161.45 474.15,-67.96 678.06,57.82 245.55,151.47 360.93,-150.07 673.72,-150.07zm-1999.44 714.09c-201.35,106.54 -347.33,193.13 -528.35,328.55 -59.35,44.4 -113.35,85.55 -165.89,135.61 -35.35,33.66 -43.47,34.77 -78.64,64.17l-478.5 552.97c-331.65,450.36 -589.38,1181.33 -589.38,1759.17l0 3887.81c0,92.71 81.84,174.55 174.56,174.55l1872.49 0c207.8,0 174.55,-242.67 174.55,-364.98 0,-441.18 -82.32,-870.23 -174.37,-1222.05 -43.98,-168.08 -115.45,-358.75 -181.31,-516.92l-247.32 -466.76c82.66,6.88 65.06,31.73 174.56,31.73 109.11,0 174.55,-85.89 174.55,-206.28 0,-138.55 -139.73,-179.7 -253.9,-206.3 19.46,-26.56 208.06,-112.5 292.24,-167.95 88.68,-58.41 191.2,-125.75 267.04,-193.15 337.53,-299.94 599.69,-677.23 778.27,-1094.22 53.38,-124.63 230.43,-567.39 233.44,-702.81l31.74 0c4.76,213.92 267.6,782.44 380.64,999.93 26.76,51.5 56.15,95.4 88.53,149.49 258.15,431.22 534.14,673.3 949.8,922.71 107.99,64.79 111.48,30.67 152.02,86 -419.6,97.76 -235.38,412.58 -79.34,412.58 109.49,0 91.89,-24.85 174.55,-31.73 -211.75,400.19 -279.08,452.93 -425.13,971.3 -140.16,497.5 -177.88,869.78 -177.88,1424.86 0,92.71 81.84,174.55 174.56,174.55l1872.5 0c92.71,0 174.55,-81.84 174.55,-174.55l0 -3887.81c0,-535.59 -204.14,-1128.06 -465.14,-1566.04l-238.01 -349.13c-225.54,-276.93 -211.89,-245.45 -435.39,-453.25 -200.3,-186.22 -452.6,-339.98 -702.22,-472.05 0,-290.33 -101.39,-571.18 -228.63,-739.36 -334.39,-441.99 -784.54,-433.28 -1231.28,-196.89 -879.36,-465.3 -1459.91,185.59 -1459.91,936.25z"/>
 </g>
</svg>
