<?xml version="1.0" encoding="UTF-8"?>
<!DOCTYPE svg PUBLIC "-//W3C//DTD SVG 1.1//EN" "http://www.w3.org/Graphics/SVG/1.1/DTD/svg11.dtd">
<!-- Creator: CorelDRAW 2021.5 -->
<svg xmlns="http://www.w3.org/2000/svg" xml:space="preserve" width="300mm" height="300mm" version="1.1" style="shape-rendering:geometricPrecision; text-rendering:geometricPrecision; image-rendering:optimizeQuality; fill-rule:evenodd; clip-rule:evenodd"
viewBox="0 0 30000 30000"
 xmlns:xlink="http://www.w3.org/1999/xlink"
 xmlns:xodm="http://www.corel.com/coreldraw/odm/2003">
 <defs>
  <style type="text/css">
   <![CDATA[
    .fil3 {fill:#FEFEFE}
    .fil0 {fill:#FEFEFE}
    .fil2 {fill:#6A51A4}
    .fil1 {fill:#8067BA}
   ]]>
  </style>
 </defs>
 <g id="Layer_x0020_1">
  <metadata id="CorelCorpID_0Corel-Layer"/>
  <g id="_2097366984384">
   <path class="fil0" d="M14997.07 24312.25c-477.6,-86.5 -417.54,-392.08 -479.04,-860.64 -246.72,-1879.82 -758.98,-3464.98 -1716.7,-5081.82 -358.28,-604.9 -1014.9,-1424.78 -1118.38,-1600.12 -142.76,-150.36 -306.76,-371.88 -440.12,-505.04 -197.16,-196.88 -297.6,-278.22 -465.84,-481.52 -291.94,-352.74 -532.04,-631.76 -801.27,-1094.26 -1066.7,-1832.63 -1107.4,-4121.01 -77.8,-6008.85 378.59,-694.12 1195.97,-1621.56 1833.73,-1974.44l295.76 -205.2c352.64,-204.32 727.46,-381.6 1127.56,-510.18 618.2,-198.66 1142.3,-281.44 1842.1,-299.68l0 -687.56c-1040.6,17.4 -1809.7,128.6 -2774.44,614.92 -1388.4,699.84 -2265.17,1496.86 -3002.15,2858.88 -64.94,120.02 -83.48,121.46 -140.2,247.68 -297.1,661.14 -621.28,1595.56 -621.28,2524.7 0,1470.22 211.46,2620.61 945.62,3838.01l500.76 749.04c298.21,395.44 528.11,595.34 870.37,982.74 114.48,129.58 171.42,165.58 287.82,315.52 1140.74,1469.6 1739.04,2415.2 2357.1,4408.98 354.06,1142.14 350.72,2536.58 664.82,2998.34 208.48,306.44 560.06,457.64 911.58,461.18l0 -690.68z"/>
   <path class="fil1" d="M11731.65 6705.56c-637.76,352.88 -1455.14,1280.32 -1833.73,1974.44 -1029.6,1887.84 -988.9,4176.22 77.8,6008.85 269.23,462.5 509.33,741.52 801.27,1094.26 168.24,203.3 268.68,284.64 465.84,481.52 133.36,133.16 297.36,354.68 440.12,505.04 103.48,175.34 760.1,995.22 1118.38,1600.12 957.72,1616.84 1469.98,3202 1716.7,5081.82 61.5,468.56 1.44,774.16 479.04,860.64l0 -6698.7c-7.92,-3174.98 -13.56,-6350.25 0,-9524.17l0 -2398.48c-692.88,19 -1228.1,101.96 -1842.1,299.28 -400.1,128.58 -774.92,305.86 -1127.56,510.18l-295.76 205.2z"/>
   <path class="fil0" d="M14997.07 24312.25c477.6,-86.5 417.54,-392.08 479.04,-860.64 246.72,-1879.82 758.98,-3464.98 1716.7,-5081.82 358.28,-604.9 1014.9,-1424.78 1118.38,-1600.12 142.76,-150.36 306.76,-371.88 440.12,-505.04 197.16,-196.88 297.6,-278.22 465.84,-481.52 291.94,-352.74 532.04,-631.76 801.26,-1094.26 1066.71,-1832.63 1107.41,-4121.01 77.8,-6008.85 -378.58,-694.12 -1195.96,-1621.56 -1833.72,-1974.44l-295.76 -205.2c-352.64,-204.32 -727.46,-381.6 -1127.56,-510.18 -618.2,-198.66 -1142.3,-281.44 -1842.1,-299.68l0 -687.56c1040.6,17.4 1809.7,128.6 2774.44,614.92 1388.4,699.84 2265.16,1496.86 3002.15,2858.88 64.94,120.02 83.48,121.46 140.2,247.68 297.1,661.14 621.28,1595.56 621.28,2524.7 0,1470.22 -211.46,2620.61 -945.63,3838.01l-500.76 749.04c-298.2,395.44 -528.1,595.34 -870.36,982.74 -114.48,129.58 -171.42,165.58 -287.82,315.52 -1140.74,1469.6 -1739.04,2415.2 -2357.1,4408.98 -354.06,1142.14 -350.72,2536.58 -664.82,2998.34 -208.48,306.44 -560.06,457.64 -911.58,461.18l0 -690.68z"/>
   <path class="fil2" d="M18262.49 6705.56c637.76,352.88 1455.14,1280.32 1833.72,1974.44 1029.61,1887.84 988.91,4176.22 -77.8,6008.85 -269.22,462.5 -509.32,741.52 -801.26,1094.26 -168.24,203.3 -268.68,284.64 -465.84,481.52 -133.36,133.16 -297.36,354.68 -440.12,505.04 -103.48,175.34 -760.1,995.22 -1118.38,1600.12 -957.72,1616.84 -1469.98,3202 -1716.7,5081.82 -61.5,468.56 -1.44,774.16 -479.04,860.64l0 -6698.7c7.92,-3174.98 13.56,-6350.25 0,-9524.17l0 -2398.48c692.88,19 1228.1,101.96 1842.1,299.28 400.1,128.58 774.92,305.86 1127.56,510.18l295.76 205.2z"/>
  </g>
  <g id="_2097366985344">
   <path class="fil3" d="M16856.27 13760.07c261.13,48.55 594.99,177.32 795.91,290.75l1.94 388.99c-43.06,-8.62 -445.52,-182.42 -797.59,-261.13l-0.26 -418.61zm-4490.67 671.91l-0.14 -393.7c150.88,-77.77 624.53,-277.2 792.59,-280.68l1.83 403.75c-59.08,34.54 -315.69,91.61 -411.14,124.46 -114.9,39.54 -281.22,118.62 -383.14,146.17zm2705.22 -876.26c316.15,0.66 1308.71,51.43 1556.7,156.32l6.43 413.19c-551.14,-69.57 -986.79,-141.35 -1562.75,-142.23l-0.38 -427.28zm-1686.41 566.68l0.13 -410.37c143.01,-78.96 1283.96,-189.89 1463.3,-146.09l0 409.37c-139.88,33.01 -559.06,30.4 -741.68,47.01 -249.83,22.72 -479.08,63.67 -721.75,100.08zm3472.35 -1422.35c140.15,-71.62 344.57,-97.5 615.82,-251.05 68.85,-38.97 119.68,-84.77 179.49,-117.47l-0.04 1463.94c-86.24,-19.54 -262.58,-106.84 -373.42,-144.98 -118.41,-40.73 -297.45,-94.68 -422.43,-114.15l0.58 -836.29zm-4491.31 -352.11c117.26,68.15 222.27,144.46 375.32,207.88 124.36,51.54 310.88,96.1 420.36,150.91l0.7 814.57c-107.02,45.27 -295.23,83.63 -415.59,121.29 -127.99,40.05 -266.73,97.06 -379.98,146.09l-0.81 -1440.74zm2707.04 570.78c674.37,10.58 954.85,-74.14 1561.09,-162.52l-0.99 725.96c-530.67,-76 -1004.39,-148.4 -1561.36,-143.48l1.26 -419.96zm-1688.18 -158.24c237.92,32.8 462.17,84.61 710.26,112.83 196.65,22.38 595.78,17.65 753.01,53.79l-0.19 405.52c-185.72,34.52 -543.43,28.02 -758.75,47.57 -245.84,22.32 -468.29,67.52 -703.46,98.33l-1.21 -643.53 0.34 -74.51zm-2.36 -1446.49c229.67,-31.66 453.96,-86.42 698.94,-115.34 255.99,-30.21 505.66,-39.62 767.16,-49.69l0.38 1576.56c-268.46,-6.28 -527.3,-22.25 -792.41,-52.08l-523.65 -84.36c-105.13,-21.13 -134.9,-12.2 -148.26,-57.69l-2.16 -1217.4zm3481.6 73.94c172.97,41.72 338.36,111.33 480.33,190.84 783.64,438.85 -109.32,824.8 -487.49,909.43l7.16 -1100.27zm-448.64 -297.84c-39.47,31.06 17.33,0.97 -27.76,98.84 -22.39,48.59 -22.49,36.78 -64.52,65.84 80.61,36.42 223.56,28.6 314.64,79.13l-10.3 1214.36c-284.56,123.66 -1202.76,172.37 -1556.23,179.05l1.34 -1579.42c325.96,9.43 687.33,16.98 1003.63,72.23 -32.38,-26.51 -32.31,-23.62 -43.21,-91.5 -3.41,-21.24 -4.07,-42.41 -1.21,-63.76 12.04,-90 -18.06,4.18 14.55,-41.77 -124.91,-42.23 -782.66,-72.29 -973.77,-68.24l-0.64 -669.69c259.45,-5.51 506.03,-16.68 762.26,-47.44 246.56,-29.61 469.7,-94.08 692.56,-124.8 87.75,168.21 113.7,786.29 111.71,1007.57 -88.61,-14.7 -134.28,-33.57 -223.05,-30.4zm-3035.1 26.22c-2.85,-363.6 43.7,-652.57 98.2,-997.5 154.2,5.73 462.97,91.95 657.97,115.9 237.41,29.17 465.72,40.57 711.18,50.31l-1.34 665.72c-229.79,31.29 -511.5,25.52 -756.9,51.91 -249.34,26.81 -477.81,84.1 -709.11,113.66zm-614.83 198.84c68.05,18.32 119.26,-0.66 107.96,87.05 -7.1,55.07 -37.72,55.03 -64.58,65.62 -81.01,31.95 -50.31,-1.06 -95.12,75.33 149.28,-49.17 276.48,-130.72 445.15,-161.28l3.9 1110.37c-220.55,-37.49 -530.04,-185.88 -665.93,-299.36 -112.17,-93.68 -154.1,-123.22 -131.64,-335.72 12.03,-113.85 116.4,-155.89 181.59,-215.45 48.23,-44.08 3.08,12.94 16.44,-18.81 6.97,-54.46 4.01,-95.34 20.95,-145.9 9.6,-28.67 22.74,-44.72 27.34,-59.43 12.83,-41.02 14.69,-2.13 2.31,-48.23l-246.95 159.21c-36.4,-452.37 2.17,-1640.56 196.26,-2015.28 49.45,79.33 38.92,122.11 118.22,201.61 240.32,240.93 358.49,207.33 579.16,337.17 -12.89,165.43 -59.54,359.76 -78.64,538.92 -20.18,189.28 -21.43,382.31 -23.66,579.52l-392.76 144.66zm3989.66 -1282.86c227.41,-49.63 643.22,-256.94 677.97,-563.06 39.7,53.82 50.98,112.07 77.96,221.24 66.29,268.24 100.07,450.09 126.77,732.88 29.88,316.51 38.22,806.44 14.15,1122.34 -261.41,-158.2 -399.7,-273.88 -790.34,-361.64 -2.83,-202.48 -4.26,-392.69 -24.79,-593.11 -19.14,-186.8 -69.39,-388.37 -81.72,-558.65zm-1683.47 -1256.06c129.27,6.1 814.19,33.33 917.81,73.7 130.62,50.86 472.75,859.85 502.42,1098.7 -695.48,112.07 -599.77,151.8 -1420.62,172.17l0.39 -1344.57zm-1547.48 1177.27c37.83,-258.06 238.77,-703.45 359.55,-908.76 137.51,-233.75 88.06,-198.63 397.18,-231.07 163.13,-17.12 400.36,-41.38 566.99,-31.19l-0.61 1329.2c-326,55.28 -1001.56,-104.9 -1323.11,-158.18zm3181.91 -79.84c-57.81,-379.66 -363.11,-881.07 -380.53,-962.72 289.44,65.02 696.27,198.35 859.95,364.24 291.23,295.17 -291.67,558.01 -479.42,598.48zm-3400.43 6.52c-260.62,-67.97 -768.95,-324.35 -490.93,-605.49 141.42,-143.01 604.79,-327.03 884.07,-367.4 -58.5,172.81 -198.09,291.69 -393.14,972.89zm1766.57 -1889.82c203.07,27.43 719.93,539.7 794.5,666.12l-794.63 -43.01 0.13 -623.11zm-917.2 669.56c30.29,-82.77 259.19,-285.59 315.15,-343.78 65.01,-67.61 288.89,-252.66 378.12,-281.78l-2.11 573.04 -691.16 52.52zm1619.92 -436.88c-73.26,-84.79 -234.25,-217.35 -336.24,-287.51 -105.45,-72.56 -83.27,-30.47 -112.92,-99.63 39.26,-30.53 20.18,-5.47 35.52,-52.83 331.9,4.27 1075.51,263.85 1285.88,411.71 265.37,186.53 591.26,677.12 691.87,999.16 -75.72,-61.1 -129.82,-119.98 -242.82,-183.88 -400.31,-226.35 -868.1,-252.31 -932.76,-331.22 -66.04,-80.6 -187.41,-267.44 -287.25,-354.34 -38.21,-33.25 -67.33,-62.17 -101.28,-101.46zm-3078.35 932.12c25.84,-116.21 229.23,-457.36 292.13,-549.89 103.13,-151.69 242.77,-325.29 402.65,-423.3 314.31,-192.69 840.79,-343.77 1265.36,-405.04 16.19,32.53 28.65,45.85 42.59,77.62 -42.45,33.04 -84.06,55.1 -129.72,88.62 -113.1,83.05 -236.11,177.44 -326.36,280.68 -38.64,44.2 -72.28,61.4 -114.19,105.03 -36.13,37.61 -55.24,73.15 -89.9,112.81 -297.64,340.53 -76.33,228.69 -496.57,329.48 -375.98,90.17 -564.04,180.91 -845.99,383.99zm-552.2 5804.98c558.22,447.33 2121.39,585.77 2864.37,584.78 544.06,-0.72 1067.34,-44.66 1591.28,-140.64 335.3,-61.41 1102.8,-272.14 1277.41,-461.01l-1.64 -2462.47c0.22,-755.66 56.99,-1681.72 -55.85,-2407.98 -109.02,-701.68 -511.15,-1720.88 -1026.28,-2042.35 -435.3,-271.66 -865.04,-362.32 -1376.34,-478.3 -69.86,-453.88 -646.71,-480.44 -780.62,-98.6 -25.88,73.82 -3.78,73.59 -70.03,96.74l-437.82 101.58c-187.71,50.12 -367.42,114.01 -542.39,184.65 -422.97,170.75 -557.59,328.2 -778.48,639.13 -759.44,1069.07 -668.07,2334.08 -664.95,3617.2l1.34 2867.27z"/>
   <path class="fil3" d="M15008.28 16187.71c583.78,0 1143.96,-48.05 1706.87,-163.2 167.78,-34.33 1133.89,-279.07 1164,-473.47 6.8,-43.87 0.28,-175.69 -0.14,-227.8 -95.59,63.64 -155.27,116.62 -271.69,178.05 -287.38,151.64 -667.16,255.81 -993.03,322.04 -1149.97,233.72 -3201.43,220.78 -4212.91,-314.36 -109.61,-57.99 -170.91,-113.58 -262.67,-168.49l2.8 260.58c224.21,196.66 881.86,374.8 1241.42,443.91 552.46,106.18 1053.06,142.74 1625.35,142.74z"/>
  </g>
 </g>
</svg>
