<?xml version="1.0" encoding="UTF-8"?>
<!DOCTYPE svg PUBLIC "-//W3C//DTD SVG 1.1//EN" "http://www.w3.org/Graphics/SVG/1.1/DTD/svg11.dtd">
<!-- Creator: CorelDRAW 2021.5 -->
<svg xmlns="http://www.w3.org/2000/svg" xml:space="preserve" width="300mm" height="300mm" version="1.1" style="shape-rendering:geometricPrecision; text-rendering:geometricPrecision; image-rendering:optimizeQuality; fill-rule:evenodd; clip-rule:evenodd"
viewBox="0 0 30000 30000"
 xmlns:xlink="http://www.w3.org/1999/xlink"
 xmlns:xodm="http://www.corel.com/coreldraw/odm/2003">
 <defs>
  <style type="text/css">
   <![CDATA[
    .fil3 {fill:#FEFEFE}
    .fil0 {fill:#FEFEFE}
    .fil2 {fill:#DA4453}
    .fil1 {fill:#ED5565}
   ]]>
  </style>
 </defs>
 <g id="Layer_x0020_1">
  <metadata id="CorelCorpID_0Corel-Layer"/>
  <g id="_2097377678928">
   <path class="fil0" d="M14997.07 24312.26c-477.6,-86.5 -417.54,-392.08 -479.04,-860.64 -246.72,-1879.82 -758.98,-3464.98 -1716.71,-5081.82 -358.28,-604.91 -1014.9,-1424.79 -1118.38,-1600.13 -142.76,-150.36 -306.76,-371.88 -440.12,-505.04 -197.16,-196.88 -297.6,-278.22 -465.84,-481.52 -291.94,-352.74 -532.04,-631.76 -801.26,-1094.26 -1066.71,-1832.64 -1107.41,-4121.03 -77.8,-6008.87 378.58,-694.12 1195.96,-1621.56 1833.72,-1974.44l295.76 -205.2c352.64,-204.32 727.46,-381.6 1127.57,-510.18 618.2,-198.66 1142.3,-281.44 1842.1,-299.68l0 -687.56c-1040.6,17.4 -1809.7,128.6 -2774.45,614.92 -1388.4,699.84 -2265.16,1496.86 -3002.15,2858.88 -64.94,120.02 -83.48,121.46 -140.2,247.68 -297.1,661.14 -621.28,1595.56 -621.28,2524.71 0,1470.22 211.46,2620.62 945.62,3838.02l500.77 749.04c298.2,395.44 528.1,595.34 870.36,982.74 114.48,129.58 171.42,165.58 287.82,315.52 1140.74,1469.61 1739.04,2415.21 2357.11,4408.99 354.06,1142.14 350.72,2536.58 664.82,2998.34 208.48,306.44 560.06,457.64 911.58,461.18l0 -690.68z"/>
   <path class="fil1" d="M11731.64 6705.54c-637.76,352.88 -1455.14,1280.32 -1833.72,1974.44 -1029.61,1887.84 -988.91,4176.23 77.8,6008.87 269.22,462.5 509.32,741.52 801.26,1094.26 168.24,203.3 268.68,284.64 465.84,481.52 133.36,133.16 297.36,354.68 440.12,505.04 103.48,175.34 760.1,995.22 1118.38,1600.13 957.73,1616.84 1469.99,3202 1716.71,5081.82 61.5,468.56 1.44,774.16 479.04,860.64l0 -6698.71c-7.92,-3174.98 -13.56,-6350.26 0,-9524.19l0 -2398.48c-692.88,19 -1228.1,101.96 -1842.1,299.28 -400.11,128.58 -774.93,305.86 -1127.57,510.18l-295.76 205.2z"/>
   <path class="fil0" d="M14997.07 24312.26c477.6,-86.5 417.54,-392.08 479.04,-860.64 246.72,-1879.82 758.99,-3464.98 1716.71,-5081.82 358.28,-604.91 1014.9,-1424.79 1118.38,-1600.13 142.76,-150.36 306.76,-371.88 440.12,-505.04 197.16,-196.88 297.6,-278.22 465.85,-481.52 291.94,-352.74 532.04,-631.76 801.26,-1094.26 1066.7,-1832.64 1107.4,-4121.03 77.8,-6008.87 -378.58,-694.12 -1195.97,-1621.56 -1833.73,-1974.44l-295.76 -205.2c-352.64,-204.32 -727.46,-381.6 -1127.56,-510.18 -618.2,-198.66 -1142.31,-281.44 -1842.11,-299.68l0 -687.56c1040.6,17.4 1809.71,128.6 2774.45,614.92 1388.41,699.84 2265.17,1496.86 3002.15,2858.88 64.94,120.02 83.48,121.46 140.2,247.68 297.1,661.14 621.28,1595.56 621.28,2524.71 0,1470.22 -211.46,2620.62 -945.62,3838.02l-500.76 749.04c-298.2,395.44 -528.1,595.34 -870.36,982.74 -114.49,129.58 -171.43,165.58 -287.83,315.52 -1140.74,1469.61 -1739.04,2415.21 -2357.1,4408.99 -354.06,1142.14 -350.72,2536.58 -664.83,2998.34 -208.48,306.44 -560.06,457.64 -911.58,461.18l0 -690.68z"/>
   <path class="fil2" d="M18262.5 6705.54c637.76,352.88 1455.15,1280.32 1833.73,1974.44 1029.6,1887.84 988.9,4176.23 -77.8,6008.87 -269.22,462.5 -509.32,741.52 -801.26,1094.26 -168.25,203.3 -268.69,284.64 -465.85,481.52 -133.36,133.16 -297.36,354.68 -440.12,505.04 -103.48,175.34 -760.1,995.22 -1118.38,1600.13 -957.72,1616.84 -1469.99,3202 -1716.71,5081.82 -61.5,468.56 -1.44,774.16 -479.04,860.64l0 -6698.71c7.92,-3174.98 13.56,-6350.26 0,-9524.19l0 -2398.48c692.88,19 1228.11,101.96 1842.11,299.28 400.1,128.58 774.92,305.86 1127.56,510.18l295.76 205.2z"/>
  </g>
  <g>
   <path class="fil3" d="M10269.7 12685.7l-0.69 -178.02c407.19,21.93 609.53,335.29 799,565.77 93.86,114.18 189.98,251.87 355.28,317.89 635.22,253.66 898.8,-480.35 1213.15,-723.39 304.86,-235.68 723.07,-208.43 1025.16,1.32 219.87,152.64 437.26,574.45 658.32,688.5 153.94,79.42 362.54,109.03 540.47,38.59 425.32,-168.4 545.71,-830.95 1167.03,-892.24 373.38,-36.82 738.36,198.71 875.86,476.29 -56.67,59.38 -85.78,99.88 -164.03,126.76 -206.12,-228.67 -436.61,-520.6 -881.05,-334.2 -236.48,99.19 -464.95,489.87 -656.75,668.86 -241.33,225.2 -663.99,305.88 -1001.72,98.66 -269.5,-165.36 -422.24,-475.22 -649.76,-676.17 -265.65,-234.61 -649.15,-187.97 -922.16,129.44 -183.09,212.89 -376.93,524.21 -700.39,626.82 -623.93,197.97 -933.46,-289.39 -1244.9,-667.09 -189.89,-230.27 -299.31,-152 -412.82,-267.79zm3185.83 -392.03l-79.76 -34.21c-1.54,-0.42 -86.5,-17.78 -90.73,-18.5 -91.37,-15.69 -121.38,-14.79 -211.69,0.18 51.79,-95.68 154.78,-147.37 231.88,-263.43l215.4 -195.18c37.49,-37.05 61.88,-67.19 103.21,-106.87l999.75 -999.95c216.16,-212.58 698.94,-745.46 910.91,-837.38 752.6,-326.42 1092.64,380.64 1384.67,667.37 117.55,115.44 130.63,95.92 270.12,180.13l-1327.38 1332.95c-283.73,279.64 -609.14,599.96 -853.83,914.17 -626.94,805.01 -872.84,-588.95 -1552.55,-639.28zm4342.65 -161.93l-6.22 2.73c2.19,-1.09 4.3,-2.04 6.22,-2.73zm-15.34 6.74l0.07 1.06c-123.7,76.56 -563.94,594.85 -693.05,651.66 -155.55,-311.07 -601.46,-574.48 -1048.14,-551.65 38.34,-72.48 1453.69,-1469.48 1634.9,-1648.15 144.11,-142.07 269.08,-268.5 410.3,-410.4 131.03,-131.65 232.06,-272.23 458.74,-360.7 326.91,-127.55 708.22,-25.88 923,198.91 40.08,41.95 152.19,179.39 186.62,230.69 -158.11,143.91 -1679.08,1661.05 -1701.3,1725.17 -66.59,37.74 -120.05,85.51 -155.8,156.67l-15.34 6.74zm93.29 252.93c60.27,-40.57 145.08,-106.36 187.05,-150.32 42.69,-44.73 118.4,-139.14 148.14,-186.83 65.51,-14.02 175.91,-152.12 233.54,-210.05 268.88,-270.22 1515.58,-1489.94 1560.38,-1579.42 -107.31,-179.59 -381.83,-479.65 -551.58,-588.53 -479.94,-307.88 -1036.35,-201.12 -1430.24,188.45l-420.87 421.29c-106.54,106.19 -169.32,211.29 -376.12,121.31 -183.62,-79.91 -394.86,-448.99 -548.67,-586.24 -487.23,-434.79 -1129.24,-432.65 -1588.97,14.15 -697.41,677.76 -636.64,876.79 -1222.36,165.96 -234.59,-284.66 -465.8,-488.52 -917.42,-503.84 -135.84,-4.6 -127.8,-4.55 -205.58,76.41 -788.95,821.2 -1700.09,1694.59 -2514.43,2516.14 -198.46,200.2 -223.8,169.65 -223.77,341.8 0.05,181.83 2.53,364.01 0.54,546.01 299.36,27.13 361.08,-10.59 508.37,185.81 314.38,419.1 678.48,826.27 1291.43,752.53 716.03,-86.13 875.2,-734.23 1185.9,-891.97 318.14,-161.54 559.66,207.17 784.51,498.47 319.3,413.69 976.7,537.43 1469.87,216.32 151.82,-98.86 239.74,-205.13 350.96,-343.02 73.2,-90.78 238.07,-303.99 318.48,-355.65 385.24,-247.5 632.81,313.65 802.9,442.02 218.65,-128.37 821.7,-734.72 1042.34,-953.62 45.7,-45.33 105.9,-83.37 115.6,-137.18zm-7434.07 -154.08l2244.51 -2235.95c192.39,-192.74 205.42,-327.25 587.9,-165.22 290.94,123.25 466.85,449.84 674.83,671.33 96.15,102.41 159.93,98.56 279.67,178.34l-1333.05 1355.85c-407.34,383.7 -474.35,462.54 -871.33,918.32 -68.92,79.09 -109.03,159.92 -242.94,200 -147.97,44.26 -271.39,-0.47 -359.14,-84.21 -238.19,-227.3 -428.1,-618.56 -817.89,-759.86 -63.9,-23.15 -116.27,-26.31 -162.56,-78.6zm7434.07 154.08l-62.31 -84.01c-24.07,-46.45 -25.59,-98.68 -30.98,-168.92l93.29 252.93z"/>
  </g>
 </g>
</svg>
