<?xml version="1.0" encoding="UTF-8"?>
<!DOCTYPE svg PUBLIC "-//W3C//DTD SVG 1.1//EN" "http://www.w3.org/Graphics/SVG/1.1/DTD/svg11.dtd">
<!-- Creator: CorelDRAW 2021.5 -->
<svg xmlns="http://www.w3.org/2000/svg" xml:space="preserve" width="300mm" height="300mm" version="1.1" style="shape-rendering:geometricPrecision; text-rendering:geometricPrecision; image-rendering:optimizeQuality; fill-rule:evenodd; clip-rule:evenodd"
viewBox="0 0 30000 30000"
 xmlns:xlink="http://www.w3.org/1999/xlink"
 xmlns:xodm="http://www.corel.com/coreldraw/odm/2003">
 <defs>
  <style type="text/css">
   <![CDATA[
    .fil3 {fill:#FEFEFE}
    .fil0 {fill:#FEFEFE}
    .fil2 {fill:#6A51A4}
    .fil1 {fill:#8067BA}
   ]]>
  </style>
 </defs>
 <g id="Layer_x0020_1">
  <metadata id="CorelCorpID_0Corel-Layer"/>
  <g id="_2133763186048">
   <path class="fil0" d="M14997.07 24312.23c-477.6,-86.5 -417.54,-392.08 -479.04,-860.64 -246.72,-1879.82 -758.98,-3464.98 -1716.7,-5081.82 -358.28,-604.9 -1014.9,-1424.78 -1118.38,-1600.12 -142.76,-150.36 -306.77,-371.88 -440.13,-505.04 -197.16,-196.88 -297.6,-278.22 -465.84,-481.52 -291.94,-352.74 -532.04,-631.76 -801.26,-1094.26 -1066.7,-1832.63 -1107.4,-4121.01 -77.8,-6008.85 378.58,-694.12 1195.96,-1621.56 1833.73,-1974.44l295.76 -205.2c352.64,-204.32 727.46,-381.6 1127.56,-510.18 618.2,-198.66 1142.3,-281.44 1842.1,-299.68l0 -687.56c-1040.6,17.4 -1809.7,128.6 -2774.44,614.92 -1388.41,699.84 -2265.17,1496.86 -3002.15,2858.88 -64.94,120.02 -83.48,121.46 -140.2,247.68 -297.1,661.14 -621.28,1595.56 -621.28,2524.7 0,1470.22 211.46,2620.61 945.62,3838.01l500.76 749.04c298.2,395.44 528.1,595.34 870.36,982.74 114.48,129.58 171.42,165.58 287.82,315.52 1140.75,1469.6 1739.05,2415.2 2357.11,4408.98 354.06,1142.14 350.72,2536.58 664.82,2998.34 208.48,306.44 560.06,457.64 911.58,461.18l0 -690.68z"/>
   <path class="fil1" d="M11731.65 6705.54c-637.77,352.88 -1455.15,1280.32 -1833.73,1974.44 -1029.6,1887.84 -988.9,4176.22 77.8,6008.85 269.22,462.5 509.32,741.52 801.26,1094.26 168.24,203.3 268.68,284.64 465.84,481.52 133.36,133.16 297.37,354.68 440.13,505.04 103.48,175.34 760.1,995.22 1118.38,1600.12 957.72,1616.84 1469.98,3202 1716.7,5081.82 61.5,468.56 1.44,774.16 479.04,860.64l0 -6698.7c-7.92,-3174.98 -13.56,-6350.25 0,-9524.17l0 -2398.48c-692.88,19 -1228.1,101.96 -1842.1,299.28 -400.1,128.58 -774.92,305.86 -1127.56,510.18l-295.76 205.2z"/>
   <path class="fil0" d="M14997.07 24312.23c477.6,-86.5 417.54,-392.08 479.04,-860.64 246.72,-1879.82 758.98,-3464.98 1716.7,-5081.82 358.28,-604.9 1014.9,-1424.78 1118.38,-1600.12 142.76,-150.36 306.76,-371.88 440.13,-505.04 197.16,-196.88 297.6,-278.22 465.84,-481.52 291.94,-352.74 532.04,-631.76 801.26,-1094.26 1066.7,-1832.63 1107.4,-4121.01 77.8,-6008.85 -378.58,-694.12 -1195.96,-1621.56 -1833.73,-1974.44l-295.76 -205.2c-352.64,-204.32 -727.46,-381.6 -1127.56,-510.18 -618.2,-198.66 -1142.3,-281.44 -1842.1,-299.68l0 -687.56c1040.6,17.4 1809.7,128.6 2774.44,614.92 1388.41,699.84 2265.17,1496.86 3002.15,2858.88 64.94,120.02 83.48,121.46 140.2,247.68 297.1,661.14 621.28,1595.56 621.28,2524.7 0,1470.22 -211.46,2620.61 -945.62,3838.01l-500.76 749.04c-298.2,395.44 -528.1,595.34 -870.36,982.74 -114.48,129.58 -171.42,165.58 -287.82,315.52 -1140.75,1469.6 -1739.05,2415.2 -2357.11,4408.98 -354.06,1142.14 -350.72,2536.58 -664.82,2998.34 -208.48,306.44 -560.06,457.64 -911.58,461.18l0 -690.68z"/>
   <path class="fil2" d="M18262.49 6705.54c637.77,352.88 1455.15,1280.32 1833.73,1974.44 1029.6,1887.84 988.9,4176.22 -77.8,6008.85 -269.22,462.5 -509.32,741.52 -801.26,1094.26 -168.24,203.3 -268.68,284.64 -465.84,481.52 -133.37,133.16 -297.37,354.68 -440.13,505.04 -103.48,175.34 -760.1,995.22 -1118.38,1600.12 -957.72,1616.84 -1469.98,3202 -1716.7,5081.82 -61.5,468.56 -1.44,774.16 -479.04,860.64l0 -6698.7c7.92,-3174.98 13.56,-6350.25 0,-9524.17l0 -2398.48c692.88,19 1228.1,101.96 1842.1,299.28 400.1,128.58 774.92,305.86 1127.56,510.18l295.76 205.2z"/>
  </g>
  <path class="fil3" d="M13828.02 13107.81l2330.43 0 0 1892.49 -2330.43 0 0 -1892.49zm5176.99 382.01l0 44.15c-13.7,90.07 -113.05,180.14 -316.95,383 -47.75,47.51 -62.91,79.14 -108.94,125.66l-1189 1235.27c-101.04,100.49 -161.86,172.45 -234.26,191.61l-81.14 0c-55.56,-12.91 -123.22,-51.02 -216.75,-120.82l-214.66 -145.06c0,85.87 -22.35,141.91 -63.19,187.06 -32.61,36.07 -88.33,78.82 -155.78,78.82l-2862.21 0c-229.6,0 -218.96,-272.62 -218.96,-391 -104.33,24.3 -187.31,65.73 -291.24,99.77l-578.03 203.99c-122.36,47.38 -206.2,79.26 -273.32,87.24l-60.28 0c-71.76,-10.1 -128.96,-60.04 -211.54,-165.28l-531.77 -672.54c-63.68,-81.02 -116.49,-149.59 -178.88,-227.78 -237.42,-297.59 -231.68,-244.89 -192.59,-563.87l132.69 -1071.62c83.45,-631.9 8,-782.2 353.54,-850.77l1002.47 -201.85 -75.61 -393.59c-63.08,-445.78 -36.25,-826.16 100.82,-1239.09 137.42,-414.01 465.45,-1009.27 768.54,-1327.28 204.6,-214.68 343.69,-495.42 624.62,-147.58 86.55,107.18 465.83,604.54 536.69,651.99 15.33,-65.79 46.63,-117.36 69.64,-196.24 92.16,-315.9 21.04,-600.39 -105.24,-894.27 -46.06,-107.19 -199,-371.21 -199,-473.53 0,-116.18 92.14,-234.61 203.32,-234.61 192.22,0 502.83,116.7 682.48,177.74 554.12,188.29 1093.44,542.75 1503.27,952.28 494.88,494.52 957.98,1325.91 957.98,2310.88 0,311.17 -59.64,478.77 -62.56,609.98 148.01,3.29 188.23,99.47 250.36,187.57l906.92 1267.1c61.24,86.82 118.38,164.95 181.52,256.42 86.22,124.91 137.46,200.17 147.04,266.25zm-1595.32 -1476.85l1047.91 1470.21c-61.59,41.24 -121.58,110.99 -176.28,167.81l-171.72 188.01c-57.99,57.98 -119,112.05 -171.93,172.16l-172.16 187.57c-122.63,122.62 -221.87,237.5 -344.09,359.73 -55.27,55.27 -124.28,115.73 -170.47,173.63 -54.58,68.42 -129.31,129.67 -169.71,190.01 -134.62,-90.15 -302.97,-241.4 -437.93,-312.81 0,-458.79 0,-917.57 0,-1376.36 0,-246.34 50.17,-461.12 -124.6,-563.59 -114.77,-67.31 -494.04,-30.75 -673.07,-30.75 227.34,-429.63 90.64,-319.33 658.03,-436.81 302.73,-62.67 608.41,-119.47 906.02,-188.81zm-4066.52 2549.4l-1094.84 391.01c-10.71,-40.12 -143.51,-198.62 -178.64,-243.65l-572.1 -726.06c0,-282 187.69,-1376.52 187.69,-1610.97l1798.33 -361.33c15.06,56.79 64.37,112.74 94.33,157.84l297 469.38c-233.15,0 -402.06,-40.81 -494.9,115.08 -73.15,122.81 -36.87,395.73 -36.87,573.1 0,411.86 0,823.73 0,1235.6zm1970.69 -1923.78l-860.22 0c-46.39,-69.27 -89.42,-134.48 -137.67,-206.42 -59.49,-88.67 -110.31,-146.87 -102.69,-219.95 36.99,-354.77 247.62,-687.75 450.37,-958.94 53.64,-71.74 96.01,-125.26 153.2,-190.89 33.5,-38.44 40.46,-55.65 78.34,-93.71 35.98,-36.15 63.17,-57.05 90.23,-97.46 84.78,56.77 139.4,148.82 215.11,222.81l205.02 248.55c212.32,283.75 194.47,277.18 330.61,560.91 -95.48,50.52 -173.96,261.48 -224.1,354.59 -40.39,74.99 -183.56,317.67 -198.2,380.51zm-391 -4551.37c234.45,19.51 964.72,455.67 1169.36,660.57 56.98,57.07 100.65,84.95 156.44,140.73 246.28,246.28 486.36,591.71 620.33,912.42 207.73,497.3 289.51,1033.97 185.05,1574.86 -64.58,334.43 19.38,203.21 -682.76,365.15 -60.63,13.98 -122.43,32.5 -181.55,37.42 -26.76,-321.6 -943.52,-1470.21 -1173.03,-1470.21 -131.7,0 -140.99,5.78 -254.05,105.69l-440.98 497.44c-135.3,179.41 -412.18,573.44 -462.37,788.88l-31.28 0c-71.06,-266.13 -345.7,-176.42 -543.51,-136.86 -79.52,15.91 -216.96,51.65 -301.07,58.65 -3.64,-163.31 -216.43,-676.94 -2.08,-1347.15 118.84,-371.57 305.64,-730.21 547.33,-1032.36 52.1,-65.13 96.73,-116.54 142.93,-185.53l638.46 784.82c55.89,51.43 108.17,59.77 190.48,59.77 225.91,0 563.06,-682.92 563.06,-1110.48 0,-182.92 -68.38,-541.8 -140.76,-703.81z"/>
 </g>
</svg>
