<?xml version="1.0" encoding="UTF-8"?>
<!DOCTYPE svg PUBLIC "-//W3C//DTD SVG 1.1//EN" "http://www.w3.org/Graphics/SVG/1.1/DTD/svg11.dtd">
<!-- Creator: CorelDRAW 2021.5 -->
<svg xmlns="http://www.w3.org/2000/svg" xml:space="preserve" width="300mm" height="300mm" version="1.1" style="shape-rendering:geometricPrecision; text-rendering:geometricPrecision; image-rendering:optimizeQuality; fill-rule:evenodd; clip-rule:evenodd"
viewBox="0 0 30000 30000"
 xmlns:xlink="http://www.w3.org/1999/xlink"
 xmlns:xodm="http://www.corel.com/coreldraw/odm/2003">
 <defs>
  <style type="text/css">
   <![CDATA[
    .fil3 {fill:#FEFEFE}
    .fil0 {fill:#FEFEFE}
    .fil2 {fill:#6A51A4}
    .fil1 {fill:#8067BA}
   ]]>
  </style>
 </defs>
 <g id="Layer_x0020_1">
  <metadata id="CorelCorpID_0Corel-Layer"/>
  <g id="_2133762979232">
   <path class="fil0" d="M14997.07 24312.25c-477.61,-86.5 -417.55,-392.08 -479.05,-860.64 -246.72,-1879.82 -758.98,-3464.98 -1716.7,-5081.82 -358.28,-604.9 -1014.9,-1424.78 -1118.38,-1600.12 -142.76,-150.36 -306.76,-371.88 -440.12,-505.04 -197.16,-196.88 -297.6,-278.22 -465.84,-481.52 -291.94,-352.74 -532.04,-631.76 -801.26,-1094.26 -1066.7,-1832.64 -1107.4,-4121.02 -77.8,-6008.86 378.58,-694.12 1195.96,-1621.56 1833.72,-1974.44l295.76 -205.2c352.64,-204.32 727.46,-381.6 1127.56,-510.18 618.2,-198.66 1142.3,-281.44 1842.11,-299.68l0 -687.56c-1040.61,17.4 -1809.71,128.6 -2774.45,614.92 -1388.4,699.84 -2265.16,1496.86 -3002.14,2858.88 -64.94,120.02 -83.48,121.46 -140.2,247.68 -297.1,661.14 -621.28,1595.56 -621.28,2524.7 0,1470.22 211.46,2620.62 945.62,3838.02l500.76 749.04c298.2,395.44 528.1,595.34 870.36,982.74 114.48,129.58 171.42,165.58 287.82,315.52 1140.74,1469.6 1739.04,2415.2 2357.1,4408.98 354.06,1142.14 350.72,2536.58 664.82,2998.34 208.48,306.44 560.06,457.64 911.59,461.18l0 -690.68z"/>
   <path class="fil1" d="M11731.64 6705.55c-637.76,352.88 -1455.14,1280.32 -1833.72,1974.44 -1029.6,1887.84 -988.9,4176.22 77.8,6008.86 269.22,462.5 509.32,741.52 801.26,1094.26 168.24,203.3 268.68,284.64 465.84,481.52 133.36,133.16 297.36,354.68 440.12,505.04 103.48,175.34 760.1,995.22 1118.38,1600.12 957.72,1616.84 1469.98,3202 1716.7,5081.82 61.5,468.56 1.44,774.16 479.05,860.64l0 -6698.7c-7.92,-3174.98 -13.56,-6350.26 0,-9524.18l0 -2398.48c-692.89,19 -1228.11,101.96 -1842.11,299.28 -400.1,128.58 -774.92,305.86 -1127.56,510.18l-295.76 205.2z"/>
   <path class="fil0" d="M14997.07 24312.25c477.6,-86.5 417.54,-392.08 479.04,-860.64 246.72,-1879.82 758.98,-3464.98 1716.7,-5081.82 358.28,-604.9 1014.9,-1424.78 1118.38,-1600.12 142.76,-150.36 306.76,-371.88 440.12,-505.04 197.16,-196.88 297.6,-278.22 465.84,-481.52 291.94,-352.74 532.04,-631.76 801.26,-1094.26 1066.7,-1832.64 1107.4,-4121.02 77.8,-6008.86 -378.58,-694.12 -1195.96,-1621.56 -1833.72,-1974.44l-295.76 -205.2c-352.64,-204.32 -727.46,-381.6 -1127.56,-510.18 -618.2,-198.66 -1142.3,-281.44 -1842.1,-299.68l0 -687.56c1040.6,17.4 1809.7,128.6 2774.44,614.92 1388.4,699.84 2265.16,1496.86 3002.14,2858.88 64.94,120.02 83.48,121.46 140.2,247.68 297.1,661.14 621.28,1595.56 621.28,2524.7 0,1470.22 -211.46,2620.62 -945.62,3838.02l-500.76 749.04c-298.2,395.44 -528.1,595.34 -870.36,982.74 -114.48,129.58 -171.42,165.58 -287.82,315.52 -1140.74,1469.6 -1739.04,2415.2 -2357.1,4408.98 -354.06,1142.14 -350.72,2536.58 -664.82,2998.34 -208.48,306.44 -560.06,457.64 -911.58,461.18l0 -690.68z"/>
   <path class="fil2" d="M18262.49 6705.55c637.76,352.88 1455.14,1280.32 1833.72,1974.44 1029.6,1887.84 988.9,4176.22 -77.8,6008.86 -269.22,462.5 -509.32,741.52 -801.26,1094.26 -168.24,203.3 -268.68,284.64 -465.84,481.52 -133.36,133.16 -297.36,354.68 -440.12,505.04 -103.48,175.34 -760.1,995.22 -1118.38,1600.12 -957.72,1616.84 -1469.98,3202 -1716.7,5081.82 -61.5,468.56 -1.44,774.16 -479.04,860.64l0 -6698.7c7.92,-3174.98 13.56,-6350.26 0,-9524.18l0 -2398.48c692.88,19 1228.1,101.96 1842.1,299.28 400.1,128.58 774.92,305.86 1127.56,510.18l295.76 205.2z"/>
  </g>
  <g id="_2133759496800">
   <path class="fil3" d="M12434.32 9415.07l5094.97 9.81 -1.91 5106.21 -5093.06 2.05 0 -5118.07zm2532.91 -1654.83l845.63 785.96c86.14,94.43 51.05,39.45 107.81,152.33l-1870.21 -10.49 916.77 -927.8zm0 -504.63c-201.06,267.94 -651.66,665.54 -907.74,918.74 -659.35,651.95 -340.25,525.82 -1311.67,523.22 -611.53,-1.63 -1032.88,152.07 -1044.61,772.59 -11.42,605.34 0.77,1224.43 0.77,1831.37 0,3975.55 -350.37,3954.07 1511.17,3954.07l3620.97 0c1803.57,0 1433.31,-134.2 1433.31,-4031.95 0,-572.64 36.08,-1270.21 -1.49,-1827.42 -56.93,-844.19 -1020.65,-696.4 -1590.02,-695.9 -224.87,0.2 -231.11,-2.77 -347.87,-124.63 -272.82,-284.71 -1129.33,-1193.92 -1362.82,-1320.09z"/>
   <path class="fil3" d="M14255.62 12096.18c-148.62,141.76 -1087.7,1484.37 -1256.77,1700.17l3960.76 0.97 -974.29 -1276.34 -712.38 827.54c-99.2,-79.13 -416.47,-502.76 -514.65,-630.38 -162.18,-210.8 -325.62,-432.56 -502.67,-621.96z"/>
  </g>
 </g>
</svg>
