<?xml version="1.0" encoding="UTF-8"?>
<!DOCTYPE svg PUBLIC "-//W3C//DTD SVG 1.1//EN" "http://www.w3.org/Graphics/SVG/1.1/DTD/svg11.dtd">
<!-- Creator: CorelDRAW 2021.5 -->
<svg xmlns="http://www.w3.org/2000/svg" xml:space="preserve" width="300mm" height="300mm" version="1.1" style="shape-rendering:geometricPrecision; text-rendering:geometricPrecision; image-rendering:optimizeQuality; fill-rule:evenodd; clip-rule:evenodd"
viewBox="0 0 30000 30000"
 xmlns:xlink="http://www.w3.org/1999/xlink"
 xmlns:xodm="http://www.corel.com/coreldraw/odm/2003">
 <defs>
  <style type="text/css">
   <![CDATA[
    .fil3 {fill:#FEFEFE}
    .fil0 {fill:#FEFEFE}
    .fil2 {fill:#E9573F}
    .fil1 {fill:#FC6E51}
   ]]>
  </style>
 </defs>
 <g id="Layer_x0020_1">
  <metadata id="CorelCorpID_0Corel-Layer"/>
  <g id="_2096364528032">
   <path class="fil0" d="M14997.07 24312.26c-477.6,-86.5 -417.54,-392.08 -479.04,-860.64 -246.72,-1879.82 -758.98,-3464.98 -1716.7,-5081.83 -358.28,-604.9 -1014.91,-1424.78 -1118.39,-1600.12 -142.76,-150.36 -306.76,-371.88 -440.12,-505.04 -197.16,-196.88 -297.6,-278.22 -465.84,-481.52 -291.94,-352.74 -532.04,-631.76 -801.26,-1094.26 -1066.71,-1832.64 -1107.41,-4121.03 -77.8,-6008.87 378.58,-694.12 1195.96,-1621.56 1833.72,-1974.44l295.76 -205.2c352.65,-204.32 727.47,-381.6 1127.57,-510.18 618.2,-198.66 1142.3,-281.44 1842.1,-299.68l0 -687.56c-1040.6,17.4 -1809.7,128.6 -2774.45,614.92 -1388.4,699.84 -2265.16,1496.86 -3002.14,2858.88 -64.95,120.02 -83.49,121.46 -140.21,247.68 -297.1,661.14 -621.28,1595.56 -621.28,2524.7 0,1470.23 211.46,2620.63 945.63,3838.03l500.76 749.04c298.2,395.44 528.1,595.34 870.36,982.74 114.48,129.58 171.42,165.58 287.82,315.52 1140.74,1469.6 1739.05,2415.21 2357.11,4408.99 354.06,1142.14 350.72,2536.58 664.82,2998.34 208.48,306.44 560.06,457.64 911.58,461.18l0 -690.68z"/>
   <path class="fil1" d="M11731.64 6705.54c-637.76,352.88 -1455.14,1280.32 -1833.72,1974.44 -1029.61,1887.84 -988.91,4176.23 77.8,6008.87 269.22,462.5 509.32,741.52 801.26,1094.26 168.24,203.3 268.68,284.64 465.84,481.52 133.36,133.16 297.36,354.68 440.12,505.04 103.48,175.34 760.11,995.22 1118.39,1600.12 957.72,1616.85 1469.98,3202.01 1716.7,5081.83 61.5,468.56 1.44,774.16 479.04,860.64l0 -6698.71c-7.92,-3174.98 -13.56,-6350.27 0,-9524.19l0 -2398.48c-692.88,19 -1228.1,101.96 -1842.1,299.28 -400.1,128.58 -774.92,305.86 -1127.57,510.18l-295.76 205.2z"/>
   <path class="fil0" d="M14997.07 24312.26c477.61,-86.5 417.55,-392.08 479.05,-860.64 246.72,-1879.82 758.98,-3464.98 1716.7,-5081.83 358.28,-604.9 1014.9,-1424.78 1118.38,-1600.12 142.76,-150.36 306.77,-371.88 440.13,-505.04 197.16,-196.88 297.6,-278.22 465.84,-481.52 291.94,-352.74 532.04,-631.76 801.26,-1094.26 1066.7,-1832.64 1107.4,-4121.03 77.8,-6008.87 -378.58,-694.12 -1195.96,-1621.56 -1833.73,-1974.44l-295.76 -205.2c-352.64,-204.32 -727.46,-381.6 -1127.56,-510.18 -618.2,-198.66 -1142.3,-281.44 -1842.11,-299.68l0 -687.56c1040.61,17.4 1809.71,128.6 2774.45,614.92 1388.41,699.84 2265.17,1496.86 3002.15,2858.88 64.94,120.02 83.48,121.46 140.2,247.68 297.1,661.14 621.28,1595.56 621.28,2524.7 0,1470.23 -211.46,2620.63 -945.62,3838.03l-500.76 749.04c-298.2,395.44 -528.1,595.34 -870.36,982.74 -114.48,129.58 -171.42,165.58 -287.82,315.52 -1140.75,1469.6 -1739.05,2415.21 -2357.11,4408.99 -354.06,1142.14 -350.72,2536.58 -664.82,2998.34 -208.48,306.44 -560.07,457.64 -911.59,461.18l0 -690.68z"/>
   <path class="fil2" d="M18262.5 6705.54c637.77,352.88 1455.15,1280.32 1833.73,1974.44 1029.6,1887.84 988.9,4176.23 -77.8,6008.87 -269.22,462.5 -509.32,741.52 -801.26,1094.26 -168.24,203.3 -268.68,284.64 -465.84,481.52 -133.36,133.16 -297.37,354.68 -440.13,505.04 -103.48,175.34 -760.1,995.22 -1118.38,1600.12 -957.72,1616.85 -1469.98,3202.01 -1716.7,5081.83 -61.5,468.56 -1.44,774.16 -479.05,860.64l0 -6698.71c7.92,-3174.98 13.56,-6350.27 0,-9524.19l0 -2398.48c692.89,19 1228.11,101.96 1842.11,299.28 400.1,128.58 774.92,305.86 1127.56,510.18l295.76 205.2z"/>
  </g>
  <g id="_2096364527984">
   <path class="fil3" d="M15512.71 14971.38c73.86,0 204,-13.64 250,-35.71 19.22,82.51 154.76,282.64 154.76,345.24 0,57.68 -61.37,119.05 -119.05,119.05 -110.81,0 -206.81,-279.46 -285.71,-428.58zm303.52 714.29l-43.28 0c-87.85,-4.2 -174.22,-34.07 -239.45,-92.23 -70.38,-62.74 -88.01,-101.43 -131.91,-189.51 -35.57,-71.37 -198.98,-383.92 -210.31,-432.55l-1976.2 0c-12.52,53.72 -80.51,172.93 -107.14,226.19 -63.58,127.15 -136.68,312.74 -241.41,401.46 -64.01,54.22 -142,81.79 -221.71,86.64l-52.18 0c-197.67,-12.08 -389.47,-158.46 -389.47,-380.95 0,-252.35 106.32,-271.76 142.86,-428.58 -157.6,-105.53 -185.99,-138.03 -260.22,-323.11 -56.79,-141.63 -108.39,-275.56 -163.33,-420 -91.78,-241.3 -46.9,-197.25 -166.57,-273.92 -135.21,-86.63 -267.03,-246.3 -267.03,-447.25 0,-165.63 29.85,-275.42 139.53,-396.19l52.7 -54.45c1.8,-1.66 4.49,-3.94 6.29,-5.6 31.89,-29.24 28.14,-28.96 66.86,-52.2 30.3,-18.19 42.69,-27.43 75.56,-43.49 29.67,-14.49 50.07,-19.1 75.73,-31.41 0,-280.22 -7.07,-507.12 133.06,-735.99 178.63,-291.74 485.15,-549.72 878.85,-549.72l1000 0 0 -2726.2c0,-69.56 61.39,-130.95 130.95,-130.95l4309.54 0c69.56,0 130.95,61.39 130.95,130.95l0 6154.77 -857.14 0 0 -142.85 -1595.24 0c11.83,50.81 70.58,153.22 95.24,202.37 93.4,186.18 115.19,378.16 -50.23,545.02 -66.56,67.13 -164.8,104.98 -265.3,109.75zm-3208.3 -285.71c-57.67,0 -119.05,-61.37 -119.05,-119.05 0,-38.76 119.9,-266.13 142.86,-309.53l261.91 0c-78.9,149.12 -174.9,428.58 -285.72,428.58zm-833.33 -2011.91c0,-266.8 348.2,-417.8 537.94,-180.8 35.44,44.27 31.24,59.18 53.75,112.92l213.73 476.74c24.19,49.92 38.23,68.93 51.72,126.85 45.58,-24.12 88.28,-57.26 134.6,-79.69 73.3,-35.47 434.83,-119.39 527.32,-139.34 577.57,-124.59 1102.24,-117.47 1678.41,-2.24 100.97,20.19 419.16,95.34 508.75,134.11 51.34,22.22 96.63,70.74 150.93,75.26 9.73,-41.75 31.76,-74.33 49.29,-117.38l157.09 -354.82c29.62,-63.38 71.23,-176.73 107.64,-225.7 117.91,-158.56 332.84,-159.68 456.01,-36.41 109.43,109.52 111.45,301.72 7.23,416.32 -105.2,115.67 -189.33,49.72 -228.95,140.1 -6.42,14.64 -12.45,34.09 -19.45,51.98 -15.93,40.75 -26.26,67.09 -39.37,103.49l-247.25 633.7c-70.41,134.87 -274.64,162.53 -420.81,162.53l-2642.87 0c-92.11,0 -179.04,-14.98 -250.3,-35.41 -77.27,-22.17 -134.54,-58.22 -170.5,-127.12l-302.83 -780.51c-33.18,-83.24 -48.4,-37.79 -141.76,-84.43 -28.46,-14.22 -63.76,-37.79 -84.43,-58.43 -51.67,-51.6 -85.89,-144.52 -85.89,-211.72zm3702.39 142.85c-238,-114.2 -1059.54,-214.28 -1333.34,-214.28 -241.65,0 -501.28,31.5 -719.52,66.19 -261.95,41.65 -414.24,93.28 -649.53,148.09 -3.44,-41.3 -70.2,-173.29 -91.24,-218.28 -67.78,-144.96 -93.47,-276.14 -261.84,-381.01 -53.14,-33.1 -154.35,-89.49 -230.25,-91.18 0,-336.67 1.49,-537.23 227.39,-772.61l11.9 -11.91c165.32,-158.65 343.25,-227.39 594.04,-227.39l2214.29 0c501.92,0 833.34,347.03 833.34,845.24 0,239.52 25.17,113.72 -210.57,241.82 -222.94,121.15 -264.99,389.16 -384.67,615.32zm869.05 -1380.95l0 -3178.58 1857.15 0 0 5571.44 -2023.82 0 239.86 -617.29c41.75,-77.57 355.38,-136.24 355.38,-561.28 0,-137.76 -65.63,-269.76 -133.72,-342.47 -150.66,-160.87 -148.79,-122.26 -282.94,-193.25 0,-239.61 -11.91,-438.32 -11.91,-678.57zm-2142.86 -3178.58l1857.14 0 0 2892.87 -137.61 -112.38c-46.37,-35.23 -109.36,-78.43 -160,-101.91 -106.03,-49.17 -263.08,-107.14 -416.67,-107.14l-1142.86 0 0 -2571.44z"/>
   <path class="fil3" d="M16774.61 11673.76l0 452.38c0,176.38 285.72,176.38 285.72,0l0 -452.38c0,-176.38 -285.72,-176.38 -285.72,0z"/>
  </g>
 </g>
</svg>
