<?xml version="1.0" encoding="UTF-8"?>
<!DOCTYPE svg PUBLIC "-//W3C//DTD SVG 1.1//EN" "http://www.w3.org/Graphics/SVG/1.1/DTD/svg11.dtd">
<!-- Creator: CorelDRAW 2021.5 -->
<svg xmlns="http://www.w3.org/2000/svg" xml:space="preserve" width="300mm" height="300mm" version="1.1" style="shape-rendering:geometricPrecision; text-rendering:geometricPrecision; image-rendering:optimizeQuality; fill-rule:evenodd; clip-rule:evenodd"
viewBox="0 0 30000 30000"
 xmlns:xlink="http://www.w3.org/1999/xlink"
 xmlns:xodm="http://www.corel.com/coreldraw/odm/2003">
 <defs>
  <style type="text/css">
   <![CDATA[
    .fil3 {fill:#FEFEFE}
    .fil0 {fill:#FEFEFE}
    .fil2 {fill:#8CC152}
    .fil1 {fill:#A0D468}
   ]]>
  </style>
 </defs>
 <g id="Layer_x0020_1">
  <metadata id="CorelCorpID_0Corel-Layer"/>
  <g id="_2133758621696">
   <path class="fil0" d="M14997.07 24312.26c-477.6,-86.5 -417.54,-392.08 -479.04,-860.64 -246.72,-1879.82 -758.98,-3464.98 -1716.7,-5081.82 -358.28,-604.9 -1014.9,-1424.78 -1118.38,-1600.12 -142.76,-150.36 -306.77,-371.88 -440.13,-505.04 -197.16,-196.88 -297.6,-278.22 -465.84,-481.52 -291.94,-352.74 -532.04,-631.76 -801.26,-1094.26 -1066.7,-1832.64 -1107.4,-4121.02 -77.8,-6008.86 378.58,-694.12 1195.96,-1621.56 1833.73,-1974.44l295.76 -205.2c352.64,-204.32 727.46,-381.6 1127.56,-510.18 618.2,-198.66 1142.3,-281.44 1842.1,-299.68l0 -687.56c-1040.6,17.4 -1809.7,128.6 -2774.44,614.92 -1388.41,699.84 -2265.17,1496.86 -3002.15,2858.88 -64.94,120.02 -83.48,121.46 -140.2,247.68 -297.1,661.14 -621.28,1595.56 -621.28,2524.7 0,1470.22 211.46,2620.62 945.62,3838.02l500.76 749.04c298.2,395.44 528.1,595.34 870.36,982.74 114.48,129.58 171.42,165.58 287.82,315.52 1140.75,1469.6 1739.05,2415.2 2357.11,4408.98 354.06,1142.14 350.72,2536.58 664.82,2998.34 208.48,306.43 560.06,457.63 911.58,461.17l0 -690.67z"/>
   <path class="fil1" d="M11731.65 6705.56c-637.77,352.88 -1455.15,1280.32 -1833.73,1974.44 -1029.6,1887.84 -988.9,4176.22 77.8,6008.86 269.22,462.5 509.32,741.52 801.26,1094.26 168.24,203.3 268.68,284.64 465.84,481.52 133.36,133.16 297.37,354.68 440.13,505.04 103.48,175.34 760.1,995.22 1118.38,1600.12 957.72,1616.84 1469.98,3202 1716.7,5081.82 61.5,468.56 1.44,774.16 479.04,860.64l0 -6698.7c-7.92,-3174.98 -13.56,-6350.26 0,-9524.18l0 -2398.48c-692.88,19 -1228.1,101.96 -1842.1,299.28 -400.1,128.58 -774.92,305.86 -1127.56,510.18l-295.76 205.2z"/>
   <path class="fil0" d="M14997.07 24312.26c477.6,-86.5 417.54,-392.08 479.04,-860.64 246.72,-1879.82 758.98,-3464.98 1716.7,-5081.82 358.28,-604.9 1014.9,-1424.78 1118.38,-1600.12 142.76,-150.36 306.76,-371.88 440.12,-505.04 197.17,-196.88 297.61,-278.22 465.85,-481.52 291.94,-352.74 532.04,-631.76 801.26,-1094.26 1066.7,-1832.64 1107.4,-4121.02 77.8,-6008.86 -378.58,-694.12 -1195.96,-1621.56 -1833.73,-1974.44l-295.76 -205.2c-352.64,-204.32 -727.46,-381.6 -1127.56,-510.18 -618.2,-198.66 -1142.3,-281.44 -1842.1,-299.68l0 -687.56c1040.6,17.4 1809.7,128.6 2774.44,614.92 1388.41,699.84 2265.17,1496.86 3002.15,2858.88 64.94,120.02 83.48,121.46 140.2,247.68 297.1,661.14 621.28,1595.56 621.28,2524.7 0,1470.22 -211.46,2620.62 -945.62,3838.02l-500.76 749.04c-298.2,395.44 -528.1,595.34 -870.36,982.74 -114.48,129.58 -171.42,165.58 -287.82,315.52 -1140.75,1469.6 -1739.05,2415.2 -2357.11,4408.98 -354.06,1142.14 -350.72,2536.58 -664.82,2998.34 -208.48,306.43 -560.06,457.63 -911.58,461.17l0 -690.67z"/>
   <path class="fil2" d="M18262.49 6705.56c637.77,352.88 1455.15,1280.32 1833.73,1974.44 1029.6,1887.84 988.9,4176.22 -77.8,6008.86 -269.22,462.5 -509.32,741.52 -801.26,1094.26 -168.24,203.3 -268.68,284.64 -465.85,481.52 -133.36,133.16 -297.36,354.68 -440.12,505.04 -103.48,175.34 -760.1,995.22 -1118.38,1600.12 -957.72,1616.84 -1469.98,3202 -1716.7,5081.82 -61.5,468.56 -1.44,774.16 -479.04,860.64l0 -6698.7c7.92,-3174.98 13.56,-6350.26 0,-9524.18l0 -2398.48c692.88,19 1228.1,101.96 1842.1,299.28 400.1,128.58 774.92,305.86 1127.56,510.18l295.76 205.2z"/>
  </g>
  <path class="fil3" d="M17937.85 10362.33l620.69 0 0 1086.21c-107.21,-71.79 -540.23,-405.24 -620.69,-426.72l0 -659.49zm-6517.25 2618.54l0 -213.36c58.47,-15.62 164.76,-105.86 221.58,-146.96l2008.88 -1424.31c147.16,-103.81 290.54,-210.48 442.43,-314.05l896.08 -636.24 2222.69 1579.04c157.65,109.09 288.42,201.9 442.86,313.61l903.42 628.91 0 213.36 -872.98 -620.56c-148.28,-104.59 -295.44,-203.9 -443.03,-313.43 -408.62,-303.27 -906.19,-625.79 -1318.98,-931.02l-443.61 -312.86c-57.15,-42.86 -414.02,-304.9 -451.58,-304.9 -135.88,0 -117.83,10.67 -302.12,144 -77.68,56.19 -141.1,96.13 -216.13,152.41l-544.91 386.12c-48.37,32.75 -62.8,47.6 -112.24,81.73l-670.22 474.19c-289.87,214.21 -583.07,406.42 -872.83,620.69l-889.31 623.63zm6206.9 -3239.24l1241.39 0 0 290.95 -1241.39 0 0 -290.95zm-6827.59 3064.67l0 -543.11c60.89,-16.26 3477.52,-2454.21 3636.31,-2570.59 130.51,-95.64 85.4,-192.72 86.99,-397.92 5.12,-653.91 901.26,-677.92 932.11,-18.79 19.4,414.54 -101.58,283.99 348.76,601.66l3084.14 2191.75c45.39,32.21 89.13,64.05 135.69,97.06 50.95,36.12 86.19,78.37 155.32,96.83l0 543.11c-68.18,-18.21 -939.02,-646.14 -1041.95,-723.13l-1564.87 -1111.87c-95.13,-62.78 -172.41,-119.77 -260.93,-185.19l-522.81 -369.44c-91.85,-62.62 -167.98,-123.64 -259.84,-186.27 -99.17,-67.62 -446.02,-344.87 -539.26,-344.87 -55.17,0 -97.42,30.07 -141.77,63.43l-645.7 459.95c-94.29,65.09 -172.52,124.02 -260.01,186.11l-1044.39 740.09c-86.68,64.32 -170.87,119.69 -262.91,183.22l-1043.68 740.81c-107.51,71.65 -705.81,524.36 -791.2,547.16zm3413.8 -3336.21l-3647.53 2578.77c-45.17,31.9 -76.62,60.59 -76.62,136.75l0 950.43c0,93.82 61.35,155.17 155.17,155.17 89.3,0 377.78,-232.19 465.52,-290.94 0,89.74 -3.32,184.35 -1.63,273.18 2.88,150.24 60.29,172.94 195.6,172.94 42.12,0 193.55,-121.99 236.6,-151.34l2404.98 -1707.09c47.28,-32.02 80.17,-51.81 126.68,-86.68l917.09 -654.04c39.95,26.75 65.98,50.78 112.32,81.65l453.83 322.04c645.09,436.84 1319.35,941.5 1967.01,1388.59 86.04,59.39 160.12,109.83 240.48,166.85l465.52 329.74c81.15,57.59 384.81,310.28 484.98,310.28 204.8,0 155.18,-241.24 155.18,-446.12 89.68,60.05 375.55,290.94 465.52,290.94 93.82,0 155.17,-61.35 155.17,-155.17l0 -950.43c0,-112.17 -148.96,-186.71 -283.16,-279.34 -62.18,-42.92 -98.66,-72.45 -158.91,-112.64 -72.63,-48.46 -124.72,-97.94 -178.62,-112.34l0 -1318.96c398.22,0 310.34,-77.51 310.34,-795.26 0,-93.82 -61.35,-155.17 -155.17,-155.17l-1551.72 0c-93.83,0 -155.18,61.35 -155.18,155.17l0 659.48c0,125.63 201.64,135.78 310.34,135.78l0 407.33c-55.11,-14.72 -183.35,-113.53 -235.69,-152.24 -77.98,-57.66 -148.91,-103.39 -226.89,-161.05 -78.2,-57.83 -145.66,-101.28 -227.47,-160.45l-1172.02 -825.83c0,-339.64 2.23,-501.2 -160.56,-692.89 -340.47,-400.88 -890.13,-400.88 -1230.6,0 -162.79,191.69 -160.56,353.25 -160.56,692.89z"/>
 </g>
</svg>
