<?xml version="1.0" encoding="UTF-8"?>
<!DOCTYPE svg PUBLIC "-//W3C//DTD SVG 1.1//EN" "http://www.w3.org/Graphics/SVG/1.1/DTD/svg11.dtd">
<!-- Creator: CorelDRAW 2021.5 -->
<svg xmlns="http://www.w3.org/2000/svg" xml:space="preserve" width="300mm" height="300mm" version="1.1" style="shape-rendering:geometricPrecision; text-rendering:geometricPrecision; image-rendering:optimizeQuality; fill-rule:evenodd; clip-rule:evenodd"
viewBox="0 0 30000 30000"
 xmlns:xlink="http://www.w3.org/1999/xlink"
 xmlns:xodm="http://www.corel.com/coreldraw/odm/2003">
 <defs>
  <style type="text/css">
   <![CDATA[
    .fil3 {fill:#FEFEFE}
    .fil0 {fill:#FEFEFE}
    .fil2 {fill:#6A51A4}
    .fil1 {fill:#8067BA}
   ]]>
  </style>
 </defs>
 <g id="Layer_x0020_1">
  <metadata id="CorelCorpID_0Corel-Layer"/>
  <g id="_2134094392144">
   <path class="fil0" d="M14997.07 24312.27c-477.6,-86.5 -417.54,-392.08 -479.04,-860.64 -246.72,-1879.82 -758.98,-3464.98 -1716.7,-5081.83 -358.29,-604.9 -1014.91,-1424.78 -1118.39,-1600.12 -142.76,-150.36 -306.76,-371.88 -440.12,-505.04 -197.16,-196.88 -297.6,-278.22 -465.84,-481.52 -291.94,-352.74 -532.04,-631.76 -801.26,-1094.26 -1066.71,-1832.64 -1107.41,-4121.03 -77.8,-6008.87 378.58,-694.12 1195.96,-1621.56 1833.72,-1974.44l295.76 -205.2c352.64,-204.32 727.47,-381.6 1127.57,-510.18 618.2,-198.66 1142.3,-281.44 1842.1,-299.68l0 -687.57c-1040.6,17.4 -1809.7,128.6 -2774.45,614.93 -1388.4,699.84 -2265.16,1496.86 -3002.15,2858.88 -64.94,120.02 -83.48,121.46 -140.2,247.68 -297.1,661.14 -621.28,1595.56 -621.28,2524.7 0,1470.23 211.46,2620.63 945.63,3838.03l500.76 749.04c298.2,395.44 528.1,595.34 870.36,982.74 114.48,129.58 171.42,165.58 287.82,315.52 1140.74,1469.6 1739.05,2415.2 2357.11,4408.99 354.06,1142.14 350.72,2536.58 664.82,2998.34 208.48,306.44 560.06,457.64 911.58,461.18l0 -690.68z"/>
   <path class="fil1" d="M11731.64 6705.55c-637.76,352.88 -1455.14,1280.32 -1833.72,1974.44 -1029.61,1887.84 -988.91,4176.23 77.8,6008.87 269.22,462.5 509.32,741.52 801.26,1094.26 168.24,203.3 268.68,284.64 465.84,481.52 133.36,133.16 297.36,354.68 440.12,505.04 103.48,175.34 760.1,995.22 1118.39,1600.12 957.72,1616.85 1469.98,3202.01 1716.7,5081.83 61.5,468.56 1.44,774.16 479.04,860.64l0 -6698.71c-7.92,-3174.98 -13.56,-6350.27 0,-9524.19l0 -2398.48c-692.88,19 -1228.1,101.96 -1842.1,299.28 -400.1,128.58 -774.93,305.86 -1127.57,510.18l-295.76 205.2z"/>
   <path class="fil0" d="M14997.07 24312.27c477.6,-86.5 417.54,-392.08 479.04,-860.64 246.73,-1879.82 758.99,-3464.98 1716.71,-5081.83 358.28,-604.9 1014.9,-1424.78 1118.38,-1600.12 142.76,-150.36 306.76,-371.88 440.13,-505.04 197.16,-196.88 297.6,-278.22 465.84,-481.52 291.94,-352.74 532.04,-631.76 801.26,-1094.26 1066.7,-1832.64 1107.4,-4121.03 77.8,-6008.87 -378.58,-694.12 -1195.96,-1621.56 -1833.73,-1974.44l-295.76 -205.2c-352.64,-204.32 -727.46,-381.6 -1127.56,-510.18 -618.2,-198.66 -1142.3,-281.44 -1842.11,-299.68l0 -687.57c1040.61,17.4 1809.71,128.6 2774.45,614.93 1388.41,699.84 2265.17,1496.86 3002.15,2858.88 64.94,120.02 83.48,121.46 140.2,247.68 297.1,661.14 621.28,1595.56 621.28,2524.7 0,1470.23 -211.46,2620.63 -945.62,3838.03l-500.76 749.04c-298.2,395.44 -528.1,595.34 -870.36,982.74 -114.48,129.58 -171.42,165.58 -287.82,315.52 -1140.75,1469.6 -1739.05,2415.2 -2357.11,4408.99 -354.06,1142.14 -350.72,2536.58 -664.82,2998.34 -208.48,306.44 -560.07,457.64 -911.59,461.18l0 -690.68z"/>
   <path class="fil2" d="M18262.5 6705.55c637.77,352.88 1455.15,1280.32 1833.73,1974.44 1029.6,1887.84 988.9,4176.23 -77.8,6008.87 -269.22,462.5 -509.32,741.52 -801.26,1094.26 -168.24,203.3 -268.68,284.64 -465.84,481.52 -133.37,133.16 -297.37,354.68 -440.13,505.04 -103.48,175.34 -760.1,995.22 -1118.38,1600.12 -957.72,1616.85 -1469.98,3202.01 -1716.71,5081.83 -61.5,468.56 -1.44,774.16 -479.04,860.64l0 -6698.71c7.92,-3174.98 13.56,-6350.27 0,-9524.19l0 -2398.48c692.89,19 1228.11,101.96 1842.11,299.28 400.1,128.58 774.92,305.86 1127.56,510.18l295.76 205.2z"/>
  </g>
  <path class="fil3" d="M13428.99 13157.69c0,121.15 103.48,159.6 199.5,159.6 90.63,0 902.38,-852.5 1022.45,-972.57l1995.02 -1995.02c149.87,-149.86 920.34,-940.79 1012.47,-1002.49l0 4369.08c0,330.04 36.51,1214.03 -19.95,1456.36 -44.74,10.43 -45.87,19.96 -99.75,19.96l-5067.35 0c-53.88,0 -55.01,-9.53 -99.76,-19.96 -35.94,-154.28 -19.95,-313.48 -19.95,-498.75 0,-100.45 458.86,-398.23 458.86,-558.61 0,-122.45 -117.24,-202.96 -219.98,-162.1 -92.16,36.65 -154.81,145.72 -238.88,202 0,-438.24 -24.65,-949.24 -1.51,-1378.07 5.9,-109.47 18.79,-85.92 136.18,-202.97l4369.1 -4369.09c391.43,-391.43 212.48,-334.16 723.19,-334.16 46.7,0 79.8,33.1 79.8,79.8l0 877.81c0,64.16 -194.58,224.5 -244.39,274.31l-3481.31 3481.3c-95.73,95.74 -503.74,458.95 -503.74,573.57zm-1072.34 -912.73c-4.98,-503.16 -47.08,-4224.79 14.97,-4354.11 129.32,-62.05 3850.97,-19.95 4349.15,-19.95l-4364.12 4374.06zm-324.18 -4334.16l0 7241.91c0,286.37 274.31,379.05 538.66,379.05l4867.85 0c264.34,0 538.65,-92.68 538.65,-379.05l0 -7241.91c0,-208.5 -194.09,-379.06 -399,-379.06l-5147.15 0c-204.91,0 -399.01,170.56 -399.01,379.06z"/>
 </g>
</svg>
