<?xml version="1.0" encoding="UTF-8"?>
<!DOCTYPE svg PUBLIC "-//W3C//DTD SVG 1.1//EN" "http://www.w3.org/Graphics/SVG/1.1/DTD/svg11.dtd">
<!-- Creator: CorelDRAW 2021.5 -->
<svg xmlns="http://www.w3.org/2000/svg" xml:space="preserve" width="300mm" height="300mm" version="1.1" style="shape-rendering:geometricPrecision; text-rendering:geometricPrecision; image-rendering:optimizeQuality; fill-rule:evenodd; clip-rule:evenodd"
viewBox="0 0 30000 30000"
 xmlns:xlink="http://www.w3.org/1999/xlink"
 xmlns:xodm="http://www.corel.com/coreldraw/odm/2003">
 <defs>
  <style type="text/css">
   <![CDATA[
    .fil3 {fill:#FEFEFE}
    .fil0 {fill:#FEFEFE}
    .fil2 {fill:#3BAFDA}
    .fil1 {fill:#4FC1E9}
   ]]>
  </style>
 </defs>
 <g id="Layer_x0020_1">
  <metadata id="CorelCorpID_0Corel-Layer"/>
  <g id="_2097377651952">
   <path class="fil0" d="M14997.08 24312.23c-477.6,-86.5 -417.54,-392.08 -479.04,-860.64 -246.72,-1879.82 -758.98,-3464.98 -1716.7,-5081.81 -358.28,-604.9 -1014.9,-1424.78 -1118.38,-1600.12 -142.76,-150.36 -306.76,-371.88 -440.12,-505.04 -197.16,-196.88 -297.6,-278.22 -465.84,-481.52 -291.94,-352.74 -532.04,-631.76 -801.26,-1094.26 -1066.7,-1832.64 -1107.4,-4121.02 -77.8,-6008.86 378.58,-694.12 1195.96,-1621.56 1833.72,-1974.44l295.76 -205.2c352.64,-204.32 727.46,-381.6 1127.56,-510.18 618.2,-198.66 1142.3,-281.44 1842.1,-299.68l0 -687.56c-1040.6,17.4 -1809.7,128.6 -2774.44,614.92 -1388.4,699.84 -2265.16,1496.86 -3002.14,2858.88 -64.94,120.02 -83.48,121.46 -140.2,247.68 -297.1,661.14 -621.28,1595.56 -621.28,2524.7 0,1470.22 211.46,2620.62 945.62,3838.02l500.76 749.04c298.2,395.44 528.1,595.34 870.36,982.74 114.48,129.58 171.42,165.58 287.82,315.52 1140.74,1469.6 1739.04,2415.2 2357.1,4408.97 354.06,1142.14 350.72,2536.58 664.82,2998.34 208.48,306.44 560.06,457.64 911.58,461.18l0 -690.68z"/>
   <path class="fil1" d="M11731.66 6705.54c-637.76,352.88 -1455.14,1280.32 -1833.72,1974.44 -1029.6,1887.84 -988.9,4176.22 77.8,6008.86 269.22,462.5 509.32,741.52 801.26,1094.26 168.24,203.3 268.68,284.64 465.84,481.52 133.36,133.16 297.36,354.68 440.12,505.04 103.48,175.34 760.1,995.22 1118.38,1600.12 957.72,1616.83 1469.98,3201.99 1716.7,5081.81 61.5,468.56 1.44,774.16 479.04,860.64l0 -6698.69c-7.92,-3174.98 -13.56,-6350.26 0,-9524.18l0 -2398.48c-692.88,19 -1228.1,101.96 -1842.1,299.28 -400.1,128.58 -774.92,305.86 -1127.56,510.18l-295.76 205.2z"/>
   <path class="fil0" d="M14997.08 24312.23c477.6,-86.5 417.54,-392.08 479.04,-860.64 246.72,-1879.82 758.98,-3464.98 1716.7,-5081.81 358.28,-604.9 1014.91,-1424.78 1118.39,-1600.12 142.76,-150.36 306.76,-371.88 440.12,-505.04 197.16,-196.88 297.6,-278.22 465.84,-481.52 291.94,-352.74 532.04,-631.76 801.26,-1094.26 1066.7,-1832.64 1107.4,-4121.02 77.8,-6008.86 -378.58,-694.12 -1195.96,-1621.56 -1833.72,-1974.44l-295.76 -205.2c-352.65,-204.32 -727.47,-381.6 -1127.57,-510.18 -618.2,-198.66 -1142.3,-281.44 -1842.1,-299.68l0 -687.56c1040.6,17.4 1809.7,128.6 2774.44,614.92 1388.41,699.84 2265.17,1496.86 3002.15,2858.88 64.94,120.02 83.48,121.46 140.2,247.68 297.1,661.14 621.28,1595.56 621.28,2524.7 0,1470.22 -211.46,2620.62 -945.62,3838.02l-500.76 749.04c-298.2,395.44 -528.1,595.34 -870.36,982.74 -114.48,129.58 -171.42,165.58 -287.82,315.52 -1140.75,1469.6 -1739.05,2415.2 -2357.11,4408.97 -354.06,1142.14 -350.72,2536.58 -664.82,2998.34 -208.48,306.44 -560.06,457.64 -911.58,461.18l0 -690.68z"/>
   <path class="fil2" d="M18262.51 6705.54c637.76,352.88 1455.14,1280.32 1833.72,1974.44 1029.6,1887.84 988.9,4176.22 -77.8,6008.86 -269.22,462.5 -509.32,741.52 -801.26,1094.26 -168.24,203.3 -268.68,284.64 -465.84,481.52 -133.36,133.16 -297.36,354.68 -440.12,505.04 -103.48,175.34 -760.11,995.22 -1118.39,1600.12 -957.72,1616.83 -1469.98,3201.99 -1716.7,5081.81 -61.5,468.56 -1.44,774.16 -479.04,860.64l0 -6698.69c7.92,-3174.98 13.56,-6350.26 0,-9524.18l0 -2398.48c692.88,19 1228.1,101.96 1842.1,299.28 400.1,128.58 774.92,305.86 1127.57,510.18l295.76 205.2z"/>
  </g>
  <g id="_2097377651376">
   <path class="fil3" d="M15848.57 14861.82c4.29,-34.53 88.67,4.13 15.73,1.59 -6.44,-0.22 -20.4,36.05 -15.73,-1.59zm-1578.71 16.79l1058.07 -1007.68c30.8,58.19 67.52,125.14 101.53,183.98l206.42 364.6c35.57,70.11 78.08,117.24 95.12,190.39 -73.8,110.22 -217.82,269.4 -368.36,269.84l-1092.78 -1.13zm-3006.27 -1192.43c0,-254.5 5.33,-398.07 117.53,-638.23 25.36,-54.3 71.02,-123.35 107.27,-178.24 107.83,-163.3 298.57,-320.46 474.96,-415.16 326.26,-175.17 809.6,-173.35 1142.48,-6 62.99,31.66 123.74,67.07 178.29,107.22l167.67 134.64c184.87,184.87 364.61,536.85 364.61,811.03 0,337.12 -24.71,568.92 -237.17,854.5 -204.85,275.34 -561.15,522.67 -972.06,522.67 -405.2,0 -681.51,-85.27 -969.91,-373.67 -198.94,-198.93 -373.67,-508.32 -373.67,-818.76zm2149.73 1192.43c338.41,-294.14 576.25,-540.91 650.34,-1029.14 41.4,-272.88 -14.11,-258.48 75.18,-344.69 76.87,-74.23 143.9,-124.92 219.2,-200.66 65.75,-66.13 142.75,-153.31 211.62,-208.25 79.05,-63.06 151.13,-152.36 220.84,-199.04 132.75,250.89 270.87,489.12 403.07,738.97l-575.22 550.03c-64.78,64.88 -126.07,133.83 -193.27,193.01l-485.73 454.78c-52.5,52.69 -42.31,46.2 -138.55,46.19 -129.01,-0.01 -258.34,-1.2 -387.48,-1.2zm671.79 -1679.48l0 -856.53c88.9,-59.53 204.56,-116.23 302.31,-167.95l128.72 240.77c27.07,53.4 40.5,67.34 67.23,117.5 30.3,56.85 40.38,80.41 72.77,128.78l-571.03 537.43zm4417.04 -839.73l214.29 -222.38 4.04 608.65c-9.06,-10.43 -18.58,-20.38 -30.33,-36.84l-173.24 -313.82c-1.6,-3.35 -3.82,-8.5 -5.22,-11.57 -1.84,-4.06 -6.94,-19.09 -9.54,-24.04zm-5827.8 -4467.43c375.82,31.28 725.67,255.61 930.5,564.24 261.59,394.16 211.55,665.45 211.55,1283.19 0,996.5 0,1992.99 0,2989.48l-96.2 -122.13c-117.91,-121.71 -215.31,-218.03 -360.35,-311.45 -155.38,-100.08 -435.13,-221.42 -685.5,-221.42l0 -4181.91zm-1410.76 4836.91c0,-331.51 -17.1,-3564.79 6.49,-3721.96 57.98,-386.43 262.45,-718.57 577.65,-917.08 135.89,-85.58 360.79,-181.46 557.9,-197.87l0 4181.91c-403.28,0 -856.84,282.06 -1089.19,590.29l-52.85 64.71zm3342.16 -688.59c68.22,-15.89 193.47,-100.89 263.37,-139.71 38.89,-21.59 60.12,-28.9 99.03,-52.12l359.78 -194.45 722.09 1293.29c22.44,43.47 37.19,60.34 61.69,106.26 166.44,312.03 425.21,736.75 565.45,1013.26 36.19,71.36 67.05,124.57 106.57,195.73l229.45 408.76c40.76,74.59 73.23,134.41 111.79,207.3l-940.5 0 -285.42 -520.73c-29.71,-57.52 -68.62,-122.7 -104.12,-181.39l-539.76 -971.77c-202.99,-380.54 -441.78,-772.03 -649.42,-1164.43zm940.51 -520.64l358.28 -195.95c86.25,-46.01 299.34,-183.56 380.7,-190.33l2082.55 3745.24 -940.51 0 -584.6 -1044.49c-248.82,-412.05 -571.16,-1035.66 -825.4,-1475.49 -120.16,-207.87 -370.45,-688.8 -471.02,-838.98zm2401.66 -134.36l772.56 -738.97c0,302.31 -0.21,604.62 0.01,906.92 0.25,356.1 -4.71,211.64 -239.57,449.02 -42.46,42.92 -67.4,88.52 -129.92,105.21 -64.67,-122.21 -132.2,-232.75 -195.89,-358.33l-207.19 -363.85zm-1444.35 -403.07c94.4,-22 622.25,-363 722.18,-386.28 19.46,83.55 489.68,893.28 559.57,1019.14l756 1360.14c43.23,81.03 179.16,289.31 179.16,358.27l0 1545.12 -67.17 0 -1074.78 -1948.29c-220.73,-427.47 -564.93,-992.49 -811.83,-1455.47 -127.36,-238.83 -149.6,-238.54 -263.13,-492.63zm1326.79 151.15c-62.26,-41.69 -149.7,-242.03 -198.28,-322.36 -38.56,-63.74 -174.28,-290.52 -188,-349.43 431.39,-228.26 845.47,-477.36 1276.4,-705.38 0,715.51 104.21,404.83 -449.24,961.51l-151.38 134.14c-86.64,80.14 -202.33,223.15 -289.5,281.52zm-3745.25 906.92l0 -940.51c310.19,-164.13 605.72,-338.99 917.95,-509.6 157.78,-86.23 293.67,-166.41 453.65,-251.75 77.34,-41.25 153.93,-87.05 224.78,-127.9 78.58,-45.31 158.78,-84.15 237.5,-131.99 179.95,-109.33 1788.93,-1010.93 1844.19,-1010.93l957.3 0c0,446.22 72.56,361.06 -268.81,537.34 -51.96,26.84 -81.1,48.6 -139.91,78.43 -424.37,215.23 -1013.92,583.64 -1455.6,811.7l-2188.58 1220.76c-50.18,27.86 -87.56,49.38 -138.65,79.68l-443.82 244.77zm0 -1242.81l0 -940.52 1405.36 -777.97c62.78,-24.23 165.01,-11.43 240.53,-11.38l1461.16 0c-21.72,18.88 -5.26,7.74 -39.39,27.79 -21.13,12.41 -33.67,16.66 -55.68,28.3l-1067.02 595.66c-64.13,38.97 -126.01,71.66 -193.12,109.19l-1751.84 968.93zm0 -1226.02l0 -503.85 890.13 0 -50.1 33.88c-18.12,10.06 -33.33,16.04 -56.42,27.55l-783.61 442.42zm-3090.25 -335.9c0,312.23 -15.41,2452.68 4.59,2598.61 19.57,142.74 26.8,1489.32 7.62,1629.09 -90.65,660.93 340.91,1275.68 888.89,1538.75 175.72,84.35 424.49,145.32 677.62,145.32l6264.47 0c83.01,0 151.15,-68.14 151.15,-151.15l0 -6046.13c0,-203.91 -243.41,-151.16 -487.05,-151.16 -1489.14,0 -2978.28,0 -4467.42,0 -254.68,-1093.17 -1672.21,-1624.14 -2590.62,-709.59 -258.72,257.63 -449.25,634.59 -449.25,1146.26z"/>
   <path class="fil3" d="M11733.84 13619c0,-258.32 87.01,-432.4 230.84,-575.31 557.63,-554.04 1381.46,-103.57 1381.46,524.93 0,255.74 -78.41,460.61 -242.88,613.66 -541.43,503.84 -1369.42,100.21 -1369.42,-563.28zm-251.92 -100.77c0,386.75 54.08,586.53 339.76,869.47 521.79,516.8 1554.45,306.55 1760.23,-549.73 116.85,-486.25 -136.73,-975.38 -571.47,-1193.26 -393.61,-197.27 -884.41,-122.14 -1180.37,163.6 -91.84,88.66 -171.07,174.77 -230.91,289.73 -53.31,102.4 -117.24,264.88 -117.24,420.19z"/>
   <path class="fil3" d="M12539.99 13350.29c133.32,0 251.92,118.6 251.92,251.92 0,207.16 -263.54,335.08 -425.26,173.34 -161.74,-161.73 -33.82,-425.26 173.34,-425.26zm-503.85 235.13c0,486.35 555.28,682.39 861.27,374.21 326.78,-329.1 63.99,-861.26 -307.04,-861.26l-100.76 0c-233.75,0 -453.47,245.43 -453.47,487.05z"/>
  </g>
 </g>
</svg>
